<?xml version="1.0" encoding="UTF-8"?>
<svg version="1.1" xmlns="http://www.w3.org/2000/svg" width="500" height="500">
<path d="M0 0 C165 0 330 0 500 0 C500 165 500 330 500 500 C335 500 170 500 0 500 C0 335 0 170 0 0 Z " fill="#FDFCF7" transform="translate(0,0)"/>
<path d="M0 0 C8.93877208 4.56529561 14.02466013 16.23064704 18 25 C18.3671979 26.32440726 18.71140069 27.65627409 19 29 C19.93070312 28.67386719 20.86140625 28.34773438 21.8203125 28.01171875 C26.80517534 26.59194761 31.72933612 26.7461719 36.875 26.8125 C37.81730469 26.81314453 38.75960937 26.81378906 39.73046875 26.81445312 C45.55881102 26.85072911 51.21927846 27.25812095 57 28 C57.4846875 26.96101563 57.969375 25.92203125 58.46875 24.8515625 C67.6680031 5.5546646 67.6680031 5.5546646 76 0 C79.80532446 -0.57907111 81.43208039 -0.39213497 84.625 1.8125 C95.30051503 16.14016491 96.58759407 40.90421662 97.3125 58.1875 C97.68797424 64.38636714 99.35818896 69.39773298 101.84375 75.0625 C103.79709922 80.02506288 104.1329378 84.97906212 104.31640625 90.2734375 C104.37924805 92.00400391 104.37924805 92.00400391 104.44335938 93.76953125 C104.48267578 94.95933594 104.52199219 96.14914063 104.5625 97.375 C104.60568359 98.58800781 104.64886719 99.80101562 104.69335938 101.05078125 C104.79905513 104.03375032 104.90115321 107.01679742 105 110 C105.76183594 109.3503125 106.52367187 108.700625 107.30859375 108.03125 C110 106 110 106 113.0625 105.5 C116.63862412 106.10870198 117.82154218 107.15124747 120 110 C120 110.66 120 111.32 120 112 C120.9075 111.7525 121.815 111.505 122.75 111.25 C126 111 126 111 128.3125 112.8125 C134.25735828 120.51879777 132 133.3445602 132 142 C148.17 142 164.34 142 181 142 C181.33 143.32 181.66 144.64 182 146 C181 147 181 147 178.8935461 147.12304783 C177.95792623 147.12212604 177.02230635 147.12120424 176.05833435 147.12025452 C174.98836212 147.12162918 173.91838989 147.12300385 172.81599426 147.12442017 C171.63204575 147.12082489 170.44809723 147.11722961 169.22827148 147.11352539 C167.989422 147.11367142 166.75057251 147.11381744 165.47418213 147.1139679 C162.06730167 147.11338892 158.66048116 147.10835959 155.25361133 147.10139394 C151.69683174 147.09515993 148.14005142 147.09455656 144.58326721 147.09336853 C137.84363418 147.09025535 131.10401729 147.08204215 124.36439139 147.07201904 C116.69341602 147.06085748 109.02243989 147.05534735 101.35145843 147.05032361 C85.56762959 147.03985952 69.78381687 147.02226035 54 147 C53.86078125 147.77214844 53.7215625 148.54429687 53.578125 149.33984375 C52.38506748 154.82952057 49.47570603 157.78667259 45 161 C40.76442825 163.11778588 35.58727888 162.62686953 31 162 C26.70229464 159.73688585 23.7630616 156.53358698 22 152 C22 150.35 22 148.7 22 147 C12.43 147 2.86 147 -7 147 C-7.66 148.65 -8.32 150.3 -9 152 C-12.66865241 154.44576827 -14.67200343 154.23607254 -19 154 C-19.66 153.67 -20.32 153.34 -21 153 C-21.66 154.65 -22.32 156.3 -23 158 C-26.6412851 158.78537522 -29.14854656 159.31681989 -32.6875 158 C-35.80389348 155.30474077 -37.18274236 152.70182112 -39 149 C-39 148.34 -39 147.68 -39 147 C-57.15 147 -75.3 147 -94 147 C-94.33 145.35 -94.66 143.7 -95 142 C-76.85 142 -58.7 142 -40 142 C-39.67 139.69 -39.34 137.38 -39 135 C-37.6953125 132.671875 -37.6953125 132.671875 -36.125 130.75 C-35.61195313 130.10546875 -35.09890625 129.4609375 -34.5703125 128.796875 C-33 127 -33 127 -31.43164062 125.63804626 C-29.67173216 123.62440441 -29.59791959 122.6373067 -29.5234375 119.99438477 C-29.49330566 119.19247208 -29.46317383 118.39055939 -29.43212891 117.56434631 C-29.41327637 116.69877609 -29.39442383 115.83320587 -29.375 114.94140625 C-29.34196777 114.04187729 -29.30893555 113.14234833 -29.27490234 112.21556091 C-29.16964517 109.33148017 -29.08280131 106.44730724 -29 103.5625 C-28.18544655 75.65220485 -28.18544655 75.65220485 -22.8828125 65.91015625 C-20.36379261 61.26159385 -20.18095223 56.6418654 -19.875 51.4375 C-19.72603944 49.47640331 -19.57499209 47.51546403 -19.421875 45.5546875 C-19.31649414 44.12914551 -19.31649414 44.12914551 -19.20898438 42.67480469 C-18.13036376 28.86946885 -16.54402316 12.45015348 -8 1 C-4.98221063 -0.50889469 -3.37677363 -0.50026276 0 0 Z " fill="#86553E" transform="translate(208,130)"/>
<path d="M0 0 C4.1313158 3.88829722 7.06811702 8.52027283 8.4375 14.0625 C8.125 18 8.125 18 6.49609375 19.84765625 C5.07226373 21.04073665 3.61923892 22.19974837 2.140625 23.32421875 C-0.47404763 25.49804542 -1.65037011 27.86188591 -2.875 31 C-2.48828125 30.45730469 -2.1015625 29.91460937 -1.703125 29.35546875 C-0.92195313 28.28232422 -0.92195313 28.28232422 -0.125 27.1875 C0.38546875 26.47980469 0.8959375 25.77210938 1.421875 25.04296875 C4.50307688 21.34693989 8.36915043 18.50058453 13.16796875 17.62890625 C19.50879167 17.43256019 24.20698133 18.92120287 29.125 23 C31.07295714 25.50167093 32.78169201 28.07662858 34.484375 30.75 C36.71218629 33.80528406 38.5990724 34.79602472 42.125 36 C42.125 35.34 42.125 34.68 42.125 34 C41.3825 33.938125 40.64 33.87625 39.875 33.8125 C35.70189571 32.57953737 34.27966291 29.73771052 31.94140625 26.21875 C29.38279012 22.45654809 27.33584839 20.04526922 23.125 18 C23.58259388 10.67849798 26.53562807 5.95928221 31.3125 0.5 C36.3421581 -2.18248432 41.286923 -1.72343139 46.71484375 -0.33984375 C53.65066196 2.12883731 59.71351471 6.08133641 63.625 12.4375 C64.09306584 14.83633744 64.06685637 16.64487407 63.9375 19.0625 C63.999375 20.361875 64.06125 21.66125 64.125 23 C66.39280807 25.08140833 66.39280807 25.08140833 69.125 27 C73.48300556 33.88106141 74.32428212 40.08077399 74.375 48.0625 C74.395625 48.87783203 74.41625 49.69316406 74.4375 50.53320312 C74.44523437 51.70979492 74.44523437 51.70979492 74.453125 52.91015625 C74.4624707 53.62308838 74.47181641 54.33602051 74.48144531 55.07055664 C74.02391246 57.54718823 72.92756674 58.30439939 71.125 60 C70.8775 61.010625 70.63 62.02125 70.375 63.0625 C69.9625 64.031875 69.55 65.00125 69.125 66 C65.5625 67.25 65.5625 67.25 62.125 68 C60.7275907 70.79481859 60.99288411 73.13324019 61 76.25 C60.99742187 77.36890625 60.99484375 78.4878125 60.9921875 79.640625 C61.07293072 83.46029311 61.07293072 83.46029311 62.125 89 C52.225 89 42.325 89 32.125 89 C31.465 84.71 30.805 80.42 30.125 76 C34.25 71.6875 34.25 71.6875 36.78515625 69.84375 C40.34309562 67.04016505 41.49541048 64.18025137 43.125 60 C43.125 59.01 43.125 58.02 43.125 57 C42.135 57.66 41.145 58.32 40.125 59 C36.73436348 59.54594995 33.51628175 59.54347464 30.125 59 C27.25 56.6875 27.25 56.6875 25.125 54 C22.58962944 51.9256059 20.09512155 50.37898501 17.125 49 C17.125 48.01 17.125 47.02 17.125 46 C18.76953125 44.7890625 18.76953125 44.7890625 20.9375 43.625 C24.53084439 41.47280257 26.59723051 40.04409572 28.125 36 C28.63690323 32.67262903 28.93578529 29.36019228 29.125 26 C20.10216453 23.27612514 11.63225676 22.4627964 3.125 27 C2.83839613 32.54100809 2.79314353 36.31457684 6.125 41 C8.1851838 42.43034457 10.2594982 43.65970987 12.48046875 44.82421875 C13.02316406 45.21222656 13.56585938 45.60023438 14.125 46 C14.125 46.99 14.125 47.98 14.125 49 C13.238125 49.37125 12.35125 49.7425 11.4375 50.125 C8.51986429 51.77649191 7.40704964 52.6270346 5.4375 55.125 C3.125 58 3.125 58 0.125 59 C-7.10944976 59.45933014 -7.10944976 59.45933014 -10.375 57.5 C-10.87 57.005 -11.365 56.51 -11.875 56 C-11.56216067 62.100367 -8.68197912 66.41814902 -4.875 71 C-2.62489813 72.94408802 -0.41398682 74.42582817 2.125 76 C0.64 82.435 0.64 82.435 -0.875 89 C-6.485 89 -12.095 89 -17.875 89 C-18.184375 86.525 -18.184375 86.525 -18.5 84 C-19.5829269 78.12341765 -21.51687231 74.11600948 -25.875 70 C-31.65245994 66.3749271 -37.27804316 66.67790627 -43.875 67 C-44.84759683 36.41723288 -44.84759683 36.41723288 -36.875 26 C-36.17117187 25.52046875 -35.46734375 25.0409375 -34.7421875 24.546875 C-32.65931166 23.14935853 -32.65931166 23.14935853 -32.40625 20.73046875 C-32.3959375 19.89128906 -32.385625 19.05210937 -32.375 18.1875 C-32.0369779 13.33547446 -31.24058648 10.70214513 -27.875 7 C-19.5029637 0.49015495 -10.63190194 -3.69805285 0 0 Z " fill="#FBF9F4" transform="translate(229.875,183)"/>
<path d="M0 0 C3.70293685 -0.33663062 5.39534381 -0.47736015 8.375 1.875 C10 4 10 4 10 6 C11.36125 5.62875 11.36125 5.62875 12.75 5.25 C16 5 16 5 18.3125 6.8125 C24.25735828 14.51879777 22 27.3445602 22 36 C38.17 36 54.34 36 71 36 C71.33 37.32 71.66 38.64 72 40 C71 41 71 41 68.8935461 41.12304783 C67.95792623 41.12212604 67.02230635 41.12120424 66.05833435 41.12025452 C64.98836212 41.12162918 63.91838989 41.12300385 62.81599426 41.12442017 C61.63204575 41.12082489 60.44809723 41.11722961 59.22827148 41.11352539 C57.36999725 41.11374443 57.36999725 41.11374443 55.47418213 41.1139679 C52.06730167 41.11338892 48.66048116 41.10835959 45.25361133 41.10139394 C41.69683174 41.09515993 38.14005142 41.09455656 34.58326721 41.09336853 C27.84363418 41.09025535 21.10401729 41.08204215 14.36439139 41.07201904 C6.69341602 41.06085748 -0.97756011 41.05534735 -8.64854157 41.05032361 C-24.43237041 41.03985952 -40.21618313 41.02226035 -56 41 C-56.13921875 41.77214844 -56.2784375 42.54429687 -56.421875 43.33984375 C-57.61493252 48.82952057 -60.52429397 51.78667259 -65 55 C-69.31629627 57.15814814 -74.36405808 56.9401974 -79 56 C-82.96964161 52.73443334 -85.38422626 48.84732123 -87 44 C-87.52421688 36.15690897 -87.89264966 28.07190535 -84 21 C-81.625 18.375 -81.625 18.375 -79 17 C-76.3125 17.0625 -76.3125 17.0625 -74 18 C-73.34 18.99 -72.68 19.98 -72 21 C-71.195625 19.9790625 -71.195625 19.9790625 -70.375 18.9375 C-68 17 -68 17 -64.9375 16.9375 C-62 18 -62 18 -60.125 20.375 C-59 23 -59 23 -59 26 C-58.34 26 -57.68 26 -57 26 C-56.67 29.3 -56.34 32.6 -56 36 C-46.1 36 -36.2 36 -26 36 C-26.66 34.02 -27.32 32.04 -28 30 C-28.30078125 26.7109375 -28.30078125 26.7109375 -28.3125 23.375 C-28.32925781 22.26898438 -28.34601563 21.16296875 -28.36328125 20.0234375 C-27.96437052 16.7034708 -27.39492691 15.30581335 -25 13 C-21.8125 12.75 -21.8125 12.75 -19 13 C-18.938125 12.071875 -18.87625 11.14375 -18.8125 10.1875 C-18 7 -18 7 -15.8125 5.125 C-12.56121221 3.82448488 -10.47163215 3.55681292 -7 4 C-4.625 5.5 -4.625 5.5 -3 7 C-2.5359375 5.824375 -2.5359375 5.824375 -2.0625 4.625 C-1 2 -1 2 0 0 Z " fill="#F7A2A1" transform="translate(318,236)"/>
<path d="M0 0 C0.35261421 4.95618861 0.5637327 8.82917054 -1.625 13.375 C-4.19313072 16.21346027 -6.6717879 18.11883664 -10 20 C-10.66 20 -11.32 20 -12 20 C-11.67 20.99 -11.34 21.98 -11 23 C-9.6078125 23.680625 -9.6078125 23.680625 -8.1875 24.375 C-4.71890301 26.14330435 -3.27842272 27.90785488 -1 31 C2.67650739 32.8382537 6.97796199 32.37884188 11 32 C14.03465702 30.68772566 14.03465702 30.68772566 16 29 C13.54911892 37.35527641 10.4929983 43.13109523 3.5859375 48.60546875 C1.74396371 50.10395147 1.74396371 50.10395147 0 53 C-0.37125 51.865625 -0.7425 50.73125 -1.125 49.5625 C-1.87780341 47.62714094 -1.87780341 47.62714094 -3 46 C-5.98500142 44.76549928 -5.98500142 44.76549928 -9 45 C-11.77042109 47.77042109 -11.39796106 49.76533805 -11.625 53.625 C-11.69976562 54.81351562 -11.77453125 56.00203125 -11.8515625 57.2265625 C-11.92503906 58.59941406 -11.92503906 58.59941406 -12 60 C-12.33 60 -12.66 60 -13 60 C-13.05607422 58.75283203 -13.05607422 58.75283203 -13.11328125 57.48046875 C-13.21189453 55.85044922 -13.21189453 55.85044922 -13.3125 54.1875 C-13.39951172 52.56908203 -13.39951172 52.56908203 -13.48828125 50.91796875 C-13.7754785 48.01323254 -13.7754785 48.01323254 -15.38671875 46.109375 C-17.01721836 44.75568189 -17.01721836 44.75568189 -19.5 45.0625 C-22.60734463 46.22775424 -23.39973088 47.10427493 -25 50 C-27.73292516 56.61655566 -27.75323856 63.94547544 -27 71 C-25.39849476 74.72062405 -23.54268592 77.85191267 -21 81 C-25.22174141 79.49223521 -26.88717524 76.84835938 -29 73 C-29 71.35 -29 69.7 -29 68 C-38.57 68 -48.14 68 -58 68 C-58.66 69.65 -59.32 71.3 -60 73 C-63.66865241 75.44576827 -65.67200343 75.23607254 -70 75 C-70.66 74.67 -71.32 74.34 -72 74 C-72.66 75.65 -73.32 77.3 -74 79 C-77.6412851 79.78537522 -80.14854656 80.31681989 -83.6875 79 C-86.80389348 76.30474077 -88.18274236 73.70182112 -90 70 C-90 69.34 -90 68.68 -90 68 C-108.15 68 -126.3 68 -145 68 C-145.495 65.525 -145.495 65.525 -146 63 C-127.85 63 -109.7 63 -91 63 C-90.67 60.69 -90.34 58.38 -90 56 C-88.6953125 53.671875 -88.6953125 53.671875 -87.125 51.75 C-86.61195313 51.10546875 -86.09890625 50.4609375 -85.5703125 49.796875 C-84 48 -84 48 -82.4296875 46.453125 C-80.76701183 44.85433361 -80.76701183 44.85433361 -79 42 C-79 42.66 -79 43.32 -79 44 C-78.443125 43.71125 -77.88625 43.4225 -77.3125 43.125 C-71.25879161 40.17995268 -66.63229542 38.59892766 -59.93359375 40.625 C-54.34107573 43.00208546 -51.06652816 46.83252867 -48 52 C-47 55 -47 55 -47 63 C-41.39 63 -35.78 63 -30 63 C-29.67 60.36 -29.34 57.72 -29 55 C-27.9375 52 -27.9375 52 -27 50 C-27.680625 49.835 -28.36125 49.67 -29.0625 49.5 C-34.48021977 46.7335048 -38.42112346 41.72715522 -41 36.25 C-41.94661111 33.17351389 -42.27480697 31.89728856 -41 29 C-40.505 29.495 -40.01 29.99 -39.5 30.5 C-36.04418273 32.57349036 -32.88646754 32.56742426 -29 32 C-25.73183798 30.55592841 -23.94250169 28.94109929 -21.4375 26.375 C-19.11637182 24.11338793 -18.13888138 23.3487646 -15 23 C-16.1761255 19.4716235 -16.73866174 19.3590649 -19.875 17.6875 C-23.79517631 15.32696373 -25.59004992 13.49421589 -27 9 C-27.43856852 6.07991089 -27.34558549 4.01153073 -27 1 C-20.467509 -6.23240075 -7.76061359 -3.51424012 0 0 Z " fill="#33342E" transform="translate(259,209)"/>
<path d="M0 0 C8.93877208 4.56529561 14.02466013 16.23064704 18 25 C18.3671979 26.32440726 18.71140069 27.65627409 19 29 C20.39605469 28.51080078 20.39605469 28.51080078 21.8203125 28.01171875 C26.80517534 26.59194761 31.72933612 26.7461719 36.875 26.8125 C37.81730469 26.81314453 38.75960937 26.81378906 39.73046875 26.81445312 C45.55881102 26.85072911 51.21927846 27.25812095 57 28 C57.4846875 26.96101563 57.969375 25.92203125 58.46875 24.8515625 C67.6680031 5.5546646 67.6680031 5.5546646 76 0 C79.80532446 -0.57907111 81.43208039 -0.39213497 84.625 1.8125 C95.34906478 16.20532379 96.52649993 40.9653875 97.375 58.3125 C97.71294192 63.91723479 99.02424634 68.3449595 101.14453125 73.51171875 C102.39779078 77.15704441 102.28813562 80.18220308 102 84 C101.67 84 101.34 84 101 84 C100.65388672 82.54980469 100.65388672 82.54980469 100.30078125 81.0703125 C95.8385863 62.9863126 87.2202304 48.8971678 71.125 38.8125 C55.27628878 29.69706027 37.7933368 27.28401963 20 31.5625 C2.77671912 36.88063115 -9.93367437 47.88388233 -18.6875 63.3125 C-25.14816962 75.62057479 -26.10811987 87.78374966 -26.5625 101.4375 C-26.60568359 102.64599609 -26.64886719 103.85449219 -26.69335938 105.09960938 C-26.79889404 108.06630606 -26.90100714 111.03307902 -27 114 C-27.33 114 -27.66 114 -28 114 C-28.07517053 109.6624679 -28.12907363 105.32529897 -28.16479492 100.98730469 C-28.17971429 99.51718527 -28.20005727 98.047109 -28.22631836 96.57714844 C-28.4128287 85.85463257 -28.16440426 75.54939335 -22.8828125 65.91015625 C-20.36379261 61.26159385 -20.18095223 56.6418654 -19.875 51.4375 C-19.72603944 49.47640331 -19.57499209 47.51546403 -19.421875 45.5546875 C-19.35162109 44.60432617 -19.28136719 43.65396484 -19.20898438 42.67480469 C-18.13036376 28.86946885 -16.54402316 12.45015348 -8 1 C-4.98221063 -0.50889469 -3.37677363 -0.50026276 0 0 Z " fill="#31271C" transform="translate(208,130)"/>
<path d="M0 0 C2.6875 0.3125 2.6875 0.3125 5 2.125 C6.6875 4.3125 6.6875 4.3125 6.6875 7.3125 C7.3475 6.9825 8.0075 6.6525 8.6875 6.3125 C11.6875 6.0625 11.6875 6.0625 14.6875 6.3125 C20.29269234 14.72028851 17.6875 25.74871278 17.6875 35.3125 C3.1675 35.3125 -11.3525 35.3125 -26.3125 35.3125 C-29.72759434 26.20558176 -29.72759434 26.20558176 -29.6875 22.0625 C-29.69523437 21.25296875 -29.70296875 20.4434375 -29.7109375 19.609375 C-29.21759435 16.76539682 -28.31893805 15.37038518 -26.3125 13.3125 C-23.125 13.0625 -23.125 13.0625 -20.3125 13.3125 C-20.23 12.219375 -20.1475 11.12625 -20.0625 10 C-19.3125 6.3125 -19.3125 6.3125 -17.625 4.375 C-14.6066394 2.98818567 -12.60279921 2.9012126 -9.3125 3.3125 C-6.9375 4.8125 -6.9375 4.8125 -5.3125 6.3125 C-5.003125 5.508125 -4.69375 4.70375 -4.375 3.875 C-2.93261173 0.39629888 -2.93261173 0.39629888 0 0 Z " fill="#FCFAF5" transform="translate(320.3125,236.6875)"/>
<path d="M0 0 C4.57713752 2.2836044 7.80039432 5.72606875 9.98828125 10.3359375 C10.87390476 13.40195572 11.30125396 16.15097989 10.98828125 19.3359375 C9.36328125 21.9609375 9.36328125 21.9609375 6.98828125 23.3359375 C2.68828125 23.0359375 2.68828125 23.0359375 0.98828125 21.3359375 C0.74078125 22.4290625 0.49328125 23.5221875 0.23828125 24.6484375 C-1.01171875 28.3359375 -1.01171875 28.3359375 -2.76171875 30.2734375 C-5.693266 31.65777926 -7.80796287 31.68417183 -11.01171875 31.3359375 C-11.67171875 30.6759375 -12.33171875 30.0159375 -13.01171875 29.3359375 C-13.48609375 30.1403125 -13.96046875 30.9446875 -14.44921875 31.7734375 C-16.01171875 34.3359375 -16.01171875 34.3359375 -17.01171875 35.3359375 C-20.3345457 35.79744124 -21.75368877 35.49567035 -24.63671875 33.7109375 C-28.45086426 29.89679199 -29.84337191 26.82700953 -30.44921875 21.4609375 C-30.20097014 15.55939101 -27.47668936 11.13575853 -23.82421875 6.6484375 C-16.6125315 0.71882798 -9.42122579 -3.10991919 0 0 Z " fill="#F9F9F4" transform="translate(200.01171875,251.6640625)"/>
<path d="M0 0 C3.70293685 -0.33663062 5.39534381 -0.47736015 8.375 1.875 C10 4 10 4 10 6 C11.36125 5.62875 11.36125 5.62875 12.75 5.25 C16 5 16 5 18.3125 6.8125 C24.25735828 14.51879777 22 27.3445602 22 36 C38.17 36 54.34 36 71 36 C71.33 37.32 71.66 38.64 72 40 C71 41 71 41 68.8935461 41.12304783 C67.95792623 41.12212604 67.02230635 41.12120424 66.05833435 41.12025452 C64.98836212 41.12162918 63.91838989 41.12300385 62.81599426 41.12442017 C61.63204575 41.12082489 60.44809723 41.11722961 59.22827148 41.11352539 C57.36999725 41.11374443 57.36999725 41.11374443 55.47418213 41.1139679 C52.06730167 41.11338892 48.66048116 41.10835959 45.25361133 41.10139394 C41.69683174 41.09515993 38.14005142 41.09455656 34.58326721 41.09336853 C27.84363418 41.09025535 21.10401729 41.08204215 14.36439139 41.07201904 C6.69341602 41.06085748 -0.97756011 41.05534735 -8.64854157 41.05032361 C-24.43237041 41.03985952 -40.21618313 41.02226035 -56 41 C-56.13921875 41.77214844 -56.2784375 42.54429687 -56.421875 43.33984375 C-57.61493252 48.82952057 -60.52429397 51.78667259 -65 55 C-67.76452033 56.38226016 -70.0461363 56.09525387 -73.125 56.0625 C-74.22070312 56.05347656 -75.31640625 56.04445313 -76.4453125 56.03515625 C-77.28835937 56.02355469 -78.13140625 56.01195312 -79 56 C-79.33 55.34 -79.66 54.68 -80 54 C-79.19175781 54.03480469 -78.38351563 54.06960938 -77.55078125 54.10546875 C-75.94783203 54.14607422 -75.94783203 54.14607422 -74.3125 54.1875 C-72.72888672 54.23970703 -72.72888672 54.23970703 -71.11328125 54.29296875 C-67.54857445 53.95751955 -65.80919605 53.19468441 -63 51 C-58.06337765 43.8001697 -58.56626623 35.36142319 -59 27 C-58.34 26.67 -57.68 26.34 -57 26 C-56.67 29.3 -56.34 32.6 -56 36 C-46.1 36 -36.2 36 -26 36 C-26.66 34.02 -27.32 32.04 -28 30 C-28.30078125 26.7109375 -28.30078125 26.7109375 -28.3125 23.375 C-28.32925781 22.26898438 -28.34601563 21.16296875 -28.36328125 20.0234375 C-27.96437052 16.7034708 -27.39492691 15.30581335 -25 13 C-21.8125 12.75 -21.8125 12.75 -19 13 C-18.67 11.02 -18.34 9.04 -18 7 C-16.95550089 10.13349732 -17.06576355 10.98968256 -18 14 C-19.134375 14.28875 -20.26875 14.5775 -21.4375 14.875 C-22.613125 15.24625 -23.78875 15.6175 -25 16 C-26.19731564 18.39463128 -26.16682476 19.95375923 -26.1875 22.625 C-26.20167969 23.44226563 -26.21585937 24.25953125 -26.23046875 25.1015625 C-26.00859337 28.89991546 -26.00859337 28.89991546 -24 36 C-9.48 36 5.04 36 20 36 C19.90490024 17.15716893 19.90490024 17.15716893 17 8 C14.36 8 11.72 8 9 8 C8.505 5.525 8.505 5.525 8 3 C5.36 2.34 2.72 1.68 0 1 C0 0.67 0 0.34 0 0 Z " fill="#2C2E27" transform="translate(318,236)"/>
<path d="M0 0 C5.84863867 0.12888602 9.75419268 1.19526831 13.86987305 5.38500977 C17.12619038 9.22914369 18.54397923 13.23062415 18.2565918 18.33422852 C17.29914133 23.41161737 15.04048103 27.24366698 11.36987305 30.82250977 C6.88546453 33.62526509 2.92521499 33.52087576 -2.31762695 33.51000977 C-4.19514648 33.51387695 -4.19514648 33.51387695 -6.1105957 33.51782227 C-9.13012695 33.38500977 -9.13012695 33.38500977 -10.13012695 32.38500977 C-10.23033625 30.10553185 -10.26093999 27.82293842 -10.26293945 25.54125977 C-10.26389618 24.85696899 -10.26485291 24.17267822 -10.26583862 23.46765137 C-10.26652025 22.01839099 -10.26466718 20.56912758 -10.26049805 19.11987305 C-10.25514947 16.89438049 -10.26044355 14.66908976 -10.2668457 12.44360352 C-10.26618492 11.03865515 -10.26490375 9.63370691 -10.26293945 8.22875977 C-10.26181152 6.94163086 -10.26068359 5.65450195 -10.25952148 4.32836914 C-9.99626669 -1.65993233 -4.99775039 0.02419504 0 0 Z " fill="#F8F8F2" transform="translate(137.130126953125,300.614990234375)"/>
<path d="M0 0 C0.76699219 0.20753906 1.53398437 0.41507813 2.32421875 0.62890625 C7.44147539 16.03035828 8.76715284 30.51475576 9.32421875 46.62890625 C8.60878906 45.89671875 7.89335937 45.16453125 7.15625 44.41015625 C-0.53815655 36.85371837 -8.98606769 30.3779307 -18.67578125 25.62890625 C-16.59061576 18.649985 -8.99041794 -1.24684628 0 0 Z " fill="#F9F8F1" transform="translate(289.67578125,136.37109375)"/>
<path d="M0 0 C3.0236927 0.10426527 4.12405136 1.11262558 6.375 3.15625 C9.087161 6.09442442 11.10974869 9.02548672 13.1875 12.4375 C14.19876953 14.07525391 14.19876953 14.07525391 15.23046875 15.74609375 C16.88971742 18.79720665 18.02236224 21.67603163 19 25 C18.10539062 25.47308594 17.21078125 25.94617188 16.2890625 26.43359375 C9.13439948 30.31259205 2.99035604 34.3267045 -2.9140625 40.01953125 C-4.85017081 41.85774644 -6.83290035 43.44576789 -9 45 C-7.64415584 7.64415584 -7.64415584 7.64415584 0 0 Z " fill="#F9F7F1" transform="translate(203,136)"/>
<path d="M0 0 C5.55808222 1.85269407 8.38003402 7.96241246 11 13 C13.04947626 17.87247207 14.55670246 22.9207029 16 28 C16.66 27.67 17.32 27.34 18 27 C18.75770785 31.11481205 19.17155355 35.09340234 19.31640625 39.2734375 C19.35830078 40.42714844 19.40019531 41.58085937 19.44335938 42.76953125 C19.48267578 43.95933594 19.52199219 45.14914063 19.5625 46.375 C19.60568359 47.58800781 19.64886719 48.80101562 19.69335938 50.05078125 C19.79905513 53.03375032 19.90115321 56.01679742 20 59 C20.99 58.01 21.98 57.02 23 56 C23.66 56.33 24.32 56.66 25 57 C24.01 58.65 23.02 60.3 22 62 C21.195625 61.505 21.195625 61.505 20.375 61 C17.3838974 59.74058838 15.22270017 59.73144165 12 60 C9.69769234 60.89831016 9.69769234 60.89831016 8 62 C8.33 61.01 8.66 60.02 9 59 C9.66 59 10.32 59 11 59 C11.04522202 41.68332552 11.04522202 41.68332552 3 27 C2.01 26.34 1.02 25.68 0 25 C0 23.03104161 0.00752677 21.06114648 0.0859375 19.09375 C-0.0445095 15.91558682 -1.40496827 13.69928446 -3 11 C-3.66666667 9.66666667 -4.33333333 8.33333333 -5 7 C-3.125 5.9375 -3.125 5.9375 -1 5 C-0.34 5.33 0.32 5.66 1 6 C0.67 4.02 0.34 2.04 0 0 Z " fill="#865741" transform="translate(293,181)"/>
<path d="M0 0 C1.45922693 0.11409593 2.91740598 0.24165544 4.375 0.375 C5.59316406 0.47941406 5.59316406 0.47941406 6.8359375 0.5859375 C9 1 9 1 11 3 C11.625 5.125 11.625 5.125 12 7 C12.66 7 13.32 7 14 7 C14 7.66 14 8.32 14 9 C16.97 9 19.94 9 23 9 C21.66666667 11 20.33333333 13 19 15 C19.66 15.66 20.32 16.32 21 17 C14.375 19.125 14.375 19.125 11 18 C7.72554706 19.0230483 7.72554706 19.0230483 5 21 C4.76518307 23.18292774 4.58636677 25.37203174 4.4375 27.5625 C4.35371094 28.76003906 4.26992187 29.95757812 4.18359375 31.19140625 C4.09271484 32.58166016 4.09271484 32.58166016 4 34 C3.67 34 3.34 34 3 34 C2.96261719 33.16855469 2.92523438 32.33710938 2.88671875 31.48046875 C2.82097656 30.39378906 2.75523437 29.30710937 2.6875 28.1875 C2.62949219 27.10855469 2.57148438 26.02960938 2.51171875 24.91796875 C1.96295075 21.78873442 1.52971798 20.83144231 -1 19 C-3.45286596 18.00922702 -3.45286596 18.00922702 -6 18 C-7.60411246 19.35405861 -7.60411246 19.35405861 -9 21 C-10.828125 21.83203125 -10.828125 21.83203125 -13 22 C-15.10546875 20.48828125 -15.10546875 20.48828125 -17.1875 18.3125 C-17.88230469 17.60738281 -18.57710937 16.90226562 -19.29296875 16.17578125 C-20.98126703 14.02387703 -21.59619238 12.66995188 -22 10 C-21.02417969 9.81824219 -20.04835937 9.63648438 -19.04296875 9.44921875 C-17.13451172 9.07216797 -17.13451172 9.07216797 -15.1875 8.6875 C-13.29064453 8.32205078 -13.29064453 8.32205078 -11.35546875 7.94921875 C-8.10463949 7.02960116 -7.05001875 6.53038618 -5 4 C-3.66666667 3.33333333 -2.33333333 2.66666667 -1 2 C-0.67 1.34 -0.34 0.68 0 0 Z " fill="#161A14" transform="translate(243,235)"/>
<path d="M0 0 C0.70833984 -0.02900391 1.41667969 -0.05800781 2.14648438 -0.08789062 C7.34121365 -0.15024656 10.15815461 0.9553903 14.3125 4.3125 C16.68290308 6.68290308 16.65715793 7.37552753 16.75 10.625 C16.67709229 14.39797385 16.42530295 15.16616104 14 18.3125 C9.80263345 21.43612162 6.72941823 21.42553879 1.625 21.375 C-0.14423828 21.36146484 -0.14423828 21.36146484 -1.94921875 21.34765625 C-3.30466797 21.33025391 -3.30466797 21.33025391 -4.6875 21.3125 C-4.6875 25.2725 -4.6875 29.2325 -4.6875 33.3125 C-6.0075 32.9825 -7.3275 32.6525 -8.6875 32.3125 C-8.71215504 27.91593827 -8.73033842 23.5194128 -8.74243164 19.12280273 C-8.74747121 17.62605082 -8.75430287 16.12930384 -8.76293945 14.63256836 C-8.77502159 12.48550193 -8.78073191 10.33850038 -8.78515625 8.19140625 C-8.79039307 6.8979126 -8.79562988 5.60441895 -8.80102539 4.27172852 C-8.58429254 -1.37777436 -4.63986243 0.06164565 0 0 Z " fill="#272923" transform="translate(287.6875,300.6875)"/>
<path d="M0 0 C2.625 0.375 2.625 0.375 5 2.125 C6.625 4.375 6.625 4.375 6.375 6.4375 C6.1275 7.076875 5.88 7.71625 5.625 8.375 C5.625 9.365 5.625 10.355 5.625 11.375 C5.13 11.99375 4.635 12.6125 4.125 13.25 C2.29779532 15.83853996 2.28945805 17.27123697 2.625 20.375 C2.955 20.705 3.285 21.035 3.625 21.375 C4.0625 23.6875 4.0625 23.6875 3.625 26.375 C-0.58548676 30.3638822 -4.53201122 30.95944651 -10.203125 31.4921875 C-12.375 31.375 -12.375 31.375 -14.375 29.375 C-14.35752073 26.61910223 -14.23636729 23.98713324 -14 21.25 C-13.94328125 20.49589844 -13.8865625 19.74179687 -13.828125 18.96484375 C-13.6865535 17.10081904 -13.53200041 15.23778863 -13.375 13.375 C-14.035 13.375 -14.695 13.375 -15.375 13.375 C-15.705 11.395 -16.035 9.415 -16.375 7.375 C-12.745 7.375 -9.115 7.375 -5.375 7.375 C-5.045 5.725 -4.715 4.075 -4.375 2.375 C-2.375 0.375 -2.375 0.375 0 0 Z " fill="#FCFBF2" transform="translate(320.375,236.625)"/>
<path d="M0 0 C3.91467216 2.14650663 6.20356227 4.78771062 8.8125 8.375 C8.1525 9.035 7.4925 9.695 6.8125 10.375 C6.27625 9.446875 5.74 8.51875 5.1875 7.5625 C2.10937866 3.43133715 -0.35584073 1.8091556 -5.48046875 1.0234375 C-11.50057851 0.66876437 -15.33286525 2.03987766 -20.375 5.28125 C-22.1875 6.375 -22.1875 6.375 -24.1875 6.375 C-24.47367188 6.95765625 -24.75984375 7.5403125 -25.0546875 8.140625 C-25.7554306 9.52278035 -26.48472403 10.89134539 -27.2578125 12.234375 C-30.05266174 17.24440105 -30.9155803 20.64136763 -30.1875 26.375 C-28.59241904 30.33546931 -26.79906116 32.96729256 -23.1875 35.375 C-20.64542029 35.70843551 -20.64542029 35.70843551 -18.1875 35.375 C-16.23533565 33.42283565 -15.33923355 31.84300047 -14.1875 29.375 C-13.1975 30.86 -13.1975 30.86 -12.1875 32.375 C-12.8475 32.375 -13.5075 32.375 -14.1875 32.375 C-14.8475 34.025 -15.5075 35.675 -16.1875 37.375 C-19.8287851 38.16037522 -22.33604656 38.69181989 -25.875 37.375 C-28.99139348 34.67974077 -30.37024236 32.07682112 -32.1875 28.375 C-32.1875 27.715 -32.1875 27.055 -32.1875 26.375 C-50.3375 26.375 -68.4875 26.375 -87.1875 26.375 C-87.5175 24.725 -87.8475 23.075 -88.1875 21.375 C-70.0375 21.375 -51.8875 21.375 -33.1875 21.375 C-32.8575 19.065 -32.5275 16.755 -32.1875 14.375 C-30.8828125 12.046875 -30.8828125 12.046875 -29.3125 10.125 C-28.79945313 9.48046875 -28.28640625 8.8359375 -27.7578125 8.171875 C-26.1875 6.375 -26.1875 6.375 -24.6171875 4.828125 C-22.95451183 3.22933361 -22.95451183 3.22933361 -21.1875 0.375 C-21.1875 1.035 -21.1875 1.695 -21.1875 2.375 C-20.630625 2.08625 -20.07375 1.7975 -19.5 1.5 C-12.6221445 -1.84598376 -7.29828161 -3.25279218 0 0 Z " fill="#2D2F28" transform="translate(201.1875,250.625)"/>
<path d="M0 0 C6.45892714 -0.40368295 11.06108578 0.4084738 17 3 C17.354115 7.97728305 17.49934663 11.88146355 15.4375 16.5 C12.36206512 19.65429218 10.33772719 20.3383128 6 21 C0.7278187 20.81820064 -2.3449691 19.86388981 -6 16 C-7.63876146 12.33229577 -8.55778206 9.01603083 -8 5 C-4.81237635 2.87491756 -2.73487777 2.4979837 1 2 C0.67 1.34 0.34 0.68 0 0 Z " fill="#161B14" transform="translate(242,206)"/>
<path d="M0 0 C6.84385369 4.72551803 8.62923342 13.55554063 10.1875 21.3125 C11.23885325 27.84195701 11.63236648 34.40229131 12 41 C12.0936691 42.63151506 12.18742335 44.26302524 12.28125 45.89453125 C12.52957454 50.26257269 12.76719044 54.63110563 13 59 C9.27843828 55.44024532 8.82812877 53.14738791 8.38671875 48.0234375 C7.14898971 26.97711761 7.14898971 26.97711761 1 7 C-1.60070985 7.07649147 -3.41182635 7.5023146 -5.421875 9.203125 C-11.30268061 15.7162753 -15.93672924 23.80124591 -19 32 C-20.32 31.67 -21.64 31.34 -23 31 C-22.387826 26.8000214 -20.9185504 23.61230076 -18.9375 19.875 C-16.59877265 15.6601338 -16.59877265 15.6601338 -16 11 C-14.57421875 8.80859375 -14.57421875 8.80859375 -12.6875 6.4375 C-12.07261719 5.65246094 -11.45773437 4.86742187 -10.82421875 4.05859375 C-7.4446985 0.24487389 -4.99439837 -0.69921577 0 0 Z " fill="#4D3A2E" transform="translate(290,130)"/>
<path d="M0 0 C5.84863867 0.12888602 9.75419268 1.19526831 13.86987305 5.38500977 C17.12619038 9.22914369 18.54397923 13.23062415 18.2565918 18.33422852 C17.29914133 23.41161737 15.04048103 27.24366698 11.36987305 30.82250977 C6.88546453 33.62526509 2.92521499 33.52087576 -2.31762695 33.51000977 C-4.19514648 33.51387695 -4.19514648 33.51387695 -6.1105957 33.51782227 C-9.13012695 33.38500977 -9.13012695 33.38500977 -10.13012695 32.38500977 C-10.23033625 30.10553185 -10.26093999 27.82293842 -10.26293945 25.54125977 C-10.26389618 24.85696899 -10.26485291 24.17267822 -10.26583862 23.46765137 C-10.26652025 22.01839099 -10.26466718 20.56912758 -10.26049805 19.11987305 C-10.25514947 16.89438049 -10.26044355 14.66908976 -10.2668457 12.44360352 C-10.26618492 11.03865515 -10.26490375 9.63370691 -10.26293945 8.22875977 C-10.26181152 6.94163086 -10.26068359 5.65450195 -10.25952148 4.32836914 C-9.99626669 -1.65993233 -4.99775039 0.02419504 0 0 Z M-6.13012695 4.38500977 C-6.13012695 12.63500977 -6.13012695 20.88500977 -6.13012695 29.38500977 C3.96783217 30.02692093 3.96783217 30.02692093 10.86987305 25.38500977 C13.83464598 20.93785036 13.63331832 16.599341 12.86987305 11.38500977 C10.43584185 8.16156304 8.2078274 6.61031267 4.86987305 4.38500977 C1.23987305 4.38500977 -2.39012695 4.38500977 -6.13012695 4.38500977 Z " fill="#181A14" transform="translate(137.130126953125,300.614990234375)"/>
<path d="M0 0 C0.87454834 0.00523682 1.74909668 0.01047363 2.65014648 0.01586914 C3.59438477 0.0190918 4.53862305 0.02231445 5.51147461 0.02563477 C6.50469727 0.03401367 7.49791992 0.04239258 8.52124023 0.05102539 C9.51833008 0.05553711 10.51541992 0.06004883 11.54272461 0.06469727 C14.01478872 0.07652532 16.48673541 0.0930069 18.95874023 0.11352539 C19.28874023 1.43352539 19.61874023 2.75352539 19.95874023 4.11352539 C13.68874023 4.11352539 7.41874023 4.11352539 0.95874023 4.11352539 C0.95874023 7.74352539 0.95874023 11.37352539 0.95874023 15.11352539 C6.56874023 15.11352539 12.17874023 15.11352539 17.95874023 15.11352539 C17.95874023 16.43352539 17.95874023 17.75352539 17.95874023 19.11352539 C12.67874023 19.11352539 7.39874023 19.11352539 1.95874023 19.11352539 C1.95874023 22.41352539 1.95874023 25.71352539 1.95874023 29.11352539 C7.56874023 29.11352539 13.17874023 29.11352539 18.95874023 29.11352539 C18.95874023 30.43352539 18.95874023 31.75352539 18.95874023 33.11352539 C15.47959083 33.14240353 12.00047193 33.16028226 8.52124023 33.17602539 C7.03140625 33.18859375 7.03140625 33.18859375 5.51147461 33.20141602 C4.56723633 33.20463867 3.62299805 33.20786133 2.65014648 33.21118164 C1.77559814 33.21641846 0.9010498 33.22165527 0 33.22705078 C-2.04125977 33.11352539 -2.04125977 33.11352539 -3.04125977 32.11352539 C-3.14146906 29.83404748 -3.1720728 27.55145404 -3.17407227 25.26977539 C-3.17502899 24.58548462 -3.17598572 23.90119385 -3.17697144 23.19616699 C-3.17765306 21.74690662 -3.17579999 20.29764321 -3.17163086 18.84838867 C-3.16628229 16.62289611 -3.17157636 14.39760538 -3.17797852 12.17211914 C-3.17731773 10.76717078 -3.17603656 9.36222254 -3.17407227 7.95727539 C-3.17294434 6.67014648 -3.17181641 5.38301758 -3.1706543 4.05688477 C-2.99964143 0.16682613 -2.99964143 0.16682613 0 0 Z " fill="#32332D" transform="translate(320.041259765625,300.886474609375)"/>
<path d="M0 0 C7.26 0 14.52 0 22 0 C22 1.32 22 2.64 22 4 C16.06 4 10.12 4 4 4 C4 7.63 4 11.26 4 15 C9.61 15 15.22 15 21 15 C20.67 16.32 20.34 17.64 20 19 C14.72 19 9.44 19 4 19 C4 22.3 4 25.6 4 29 C9.94 29 15.88 29 22 29 C22 30.32 22 31.64 22 33 C14.74 33 7.48 33 0 33 C0 22.11 0 11.22 0 0 Z " fill="#181B14" transform="translate(169,301)"/>
<path d="M0 0 C4.46994116 0.51085042 6.69370138 1.99427398 10 5 C12.95433699 9.15917834 15.46358027 13.57711809 18 18 C18.474375 18.82113281 18.94875 19.64226562 19.4375 20.48828125 C22.10866048 25.41323339 22.10866048 25.41323339 21.58984375 28.21484375 C21.39519531 28.80394531 21.20054687 29.39304688 21 30 C20.34 30 19.68 30 19 30 C18.56429687 29.154375 18.12859375 28.30875 17.6796875 27.4375 C14.53024824 21.43856807 11.38168358 15.74999016 7.06640625 10.48828125 C6 9 6 9 6 7 C3.03 6.505 3.03 6.505 0 6 C-6.21066782 17.5217403 -8.55425677 34.05404183 -7.8125 47.1875 C-8 51 -8 51 -10.5 54.0625 C-11.325 54.701875 -12.15 55.34125 -13 56 C-13.35792454 29.83173929 -13.35792454 29.83173929 -10.05078125 21.65234375 C-8.8679902 18.66678568 -8.04398682 15.65678641 -7.1875 12.5625 C-5.58696807 7.23544656 -3.97238792 3.86204381 0 0 Z " fill="#815F50" transform="translate(203,131)"/>
<path d="M0 0 C1.19882813 0.15275391 1.19882813 0.15275391 2.421875 0.30859375 C3.02515625 0.39238281 3.6284375 0.47617188 4.25 0.5625 C4.25 0.8925 4.25 1.2225 4.25 1.5625 C3.40695313 1.69527344 2.56390625 1.82804688 1.6953125 1.96484375 C0.59960938 2.14144531 -0.49609375 2.31804687 -1.625 2.5 C-2.71554688 2.67402344 -3.80609375 2.84804687 -4.9296875 3.02734375 C-7.68821546 3.41801159 -7.68821546 3.41801159 -9.75 4.5625 C-9.63646726 9.29991162 -9.41693697 12.62094192 -6.625 16.5625 C-3.19155966 18.95098023 -0.90537796 19.41139535 3.25 19.5625 C5.57158065 19.21590705 5.57158065 19.21590705 7.25 18.5625 C7.58 19.2225 7.91 19.8825 8.25 20.5625 C6.27 21.2225 4.29 21.8825 2.25 22.5625 C2.58 23.5525 2.91 24.5425 3.25 25.5625 C4.178125 26.01625 5.10625 26.47 6.0625 26.9375 C9.53109699 28.70580435 10.97157728 30.47035488 13.25 33.5625 C16.92650739 35.4007537 21.22796199 34.94134188 25.25 34.5625 C28.28465702 33.25022566 28.28465702 33.25022566 30.25 31.5625 C27.79911892 39.91777641 24.7429983 45.69359523 17.8359375 51.16796875 C15.99396371 52.66645147 15.99396371 52.66645147 14.25 55.5625 C13.79625 54.428125 13.3425 53.29375 12.875 52.125 C11.67904194 48.51528308 11.67904194 48.51528308 9.25 47.5625 C9.25 46.9025 9.25 46.2425 9.25 45.5625 C10.9 46.2225 12.55 46.8825 14.25 47.5625 C14.58 46.9025 14.91 46.2425 15.25 45.5625 C15.58 45.2325 15.91 44.9025 16.25 44.5625 C16.93268138 43.23729497 17.6007041 41.90437818 18.25 40.5625 C17.59 40.2325 16.93 39.9025 16.25 39.5625 C18.23 39.0675 18.23 39.0675 20.25 38.5625 C17.61 38.2325 14.97 37.9025 12.25 37.5625 C12.25 36.9025 12.25 36.2425 12.25 35.5625 C11.59 35.5625 10.93 35.5625 10.25 35.5625 C9.569375 34.3559375 9.569375 34.3559375 8.875 33.125 C7.51579005 30.41013807 7.51579005 30.41013807 5.0625 29.75 C4.1653125 29.6571875 4.1653125 29.6571875 3.25 29.5625 C3.25 28.9025 3.25 28.2425 3.25 27.5625 C1.93 27.2325 0.61 26.9025 -0.75 26.5625 C-0.42 25.2425 -0.09 23.9225 0.25 22.5625 C-0.636875 22.315 -1.52375 22.0675 -2.4375 21.8125 C-6.76542498 20.17932076 -9.70183809 18.359349 -12.0625 14.3125 C-13.02434278 10.46512887 -13.1349361 7.54017299 -12.75 3.5625 C-9.20446965 -0.3629086 -5.00989828 -0.66307477 0 0 Z " fill="#292B25" transform="translate(244.75,206.4375)"/>
<path d="M0 0 C2.32221873 3.77360544 2 5.01199411 2 10 C17.345 9.505 17.345 9.505 33 9 C33 9.66 33 10.32 33 11 C23.43 11.33 13.86 11.66 4 12 C7.68569042 12.73713808 10.49125286 13.1313495 14.15693665 13.15821838 C15.17350845 13.1680072 16.19008026 13.17779602 17.23745728 13.18788147 C18.34156952 13.19363693 19.44568176 13.1993924 20.58325195 13.20532227 C21.75441055 13.21522186 22.92556915 13.22512146 24.13221741 13.23532104 C28.00088483 13.26689264 31.86956454 13.29167645 35.73828125 13.31640625 C38.42156898 13.33697952 41.10485113 13.35792893 43.78813171 13.37937927 C50.12739894 13.42923067 56.46669098 13.47419741 62.80600661 13.51740164 C70.02487795 13.56683869 77.24370458 13.62173277 84.46253264 13.67708123 C99.30831314 13.79078528 114.15413671 13.89764938 129 14 C129 14.33 129 14.66 129 15 C87.09 15 45.18 15 2 15 C1.67 16.65 1.34 18.3 1 20 C-1.26709882 24.64755259 -4.36288834 27.68144417 -9 30 C-11.04055005 30.07065617 -13.08334257 30.08421976 -15.125 30.0625 C-16.22070312 30.05347656 -17.31640625 30.04445313 -18.4453125 30.03515625 C-19.70988281 30.01775391 -19.70988281 30.01775391 -21 30 C-21.33 29.34 -21.66 28.68 -22 28 C-21.19175781 28.03480469 -20.38351563 28.06960938 -19.55078125 28.10546875 C-18.48214844 28.13253906 -17.41351563 28.15960938 -16.3125 28.1875 C-14.72888672 28.23970703 -14.72888672 28.23970703 -13.11328125 28.29296875 C-9.54857445 27.95751955 -7.80919605 27.19468441 -5 25 C-0.56861252 18.53703087 -0.65576157 11.37290557 -0.95703125 3.80859375 C-0.97121094 2.88175781 -0.98539062 1.95492188 -1 1 C-0.67 0.67 -0.34 0.34 0 0 Z " fill="#4F524B" transform="translate(260,262)"/>
<path d="M0 0 C0.87454834 0.00523682 1.74909668 0.01047363 2.65014648 0.01586914 C3.59438477 0.0190918 4.53862305 0.02231445 5.51147461 0.02563477 C6.50469727 0.03401367 7.49791992 0.04239258 8.52124023 0.05102539 C9.51833008 0.05553711 10.51541992 0.06004883 11.54272461 0.06469727 C14.01478872 0.07652532 16.48673541 0.0930069 18.95874023 0.11352539 C18.95874023 1.43352539 18.95874023 2.75352539 18.95874023 4.11352539 C13.01874023 4.11352539 7.07874023 4.11352539 0.95874023 4.11352539 C0.95874023 7.74352539 0.95874023 11.37352539 0.95874023 15.11352539 C6.56874023 15.11352539 12.17874023 15.11352539 17.95874023 15.11352539 C17.95874023 16.10352539 17.95874023 17.09352539 17.95874023 18.11352539 C12.34874023 18.11352539 6.73874023 18.11352539 0.95874023 18.11352539 C0.95874023 23.06352539 0.95874023 28.01352539 0.95874023 33.11352539 C-0.36125977 33.11352539 -1.68125977 33.11352539 -3.04125977 33.11352539 C-3.06591369 28.57454834 -3.08409765 24.03560996 -3.09619141 19.49658203 C-3.10123116 17.95132773 -3.10806296 16.40607823 -3.11669922 14.86083984 C-3.12878053 12.6442751 -3.13449149 10.42777321 -3.13891602 8.21118164 C-3.1440773 7.51638199 -3.14923859 6.82158234 -3.15455627 6.10572815 C-3.15475253 4.44123209 -3.10315105 2.7768704 -3.04125977 1.11352539 C-2.04125977 0.11352539 -2.04125977 0.11352539 0 0 Z " fill="#262822" transform="translate(208.041259765625,300.886474609375)"/>
<path d="M0 0 C8.25 0 16.5 0 25 0 C25.33 1.32 25.66 2.64 26 4 C22.37 4 18.74 4 15 4 C15 13.24 15 22.48 15 32 C13.02 32.495 13.02 32.495 11 33 C10 32 10 32 9.88647461 29.31616211 C9.89171143 28.14835205 9.89694824 26.98054199 9.90234375 25.77734375 C9.90556641 24.51728516 9.90878906 23.25722656 9.91210938 21.95898438 C9.92046597 20.61848891 9.92893093 19.27799412 9.9375 17.9375 C9.9425134 16.59310058 9.94707658 15.2486994 9.95117188 13.90429688 C9.96300512 10.60282059 9.97949029 7.30143197 10 4 C6.37 4 2.74 4 -1 4 C-0.67 2.68 -0.34 1.36 0 0 Z " fill="#42433D" transform="translate(351,301)"/>
<path d="M0 0 C2.375 2 2.375 2 4 4 C0.18243176 5.37432457 -3.07255329 4.67975039 -7 4 C-6.67 5.98 -6.34 7.96 -6 10 C-5.34 10 -4.68 10 -4 10 C-4.33 15.28 -4.66 20.56 -5 26 C-5.33 26 -5.66 26 -6 26 C-6.33 23.69 -6.66 21.38 -7 19 C-7.86625 19.2165625 -7.86625 19.2165625 -8.75 19.4375 C-11 20 -11 20 -13.125 20.1875 C-15.34567075 20.89134855 -15.34567075 20.89134855 -16.1875 23.875 C-16.455625 24.90625 -16.72375 25.9375 -17 27 C-17.33 27.99 -17.66 28.98 -18 30 C-20.17663532 24.83049112 -20.8510889 19.54580508 -20 14 C-18.6796875 11.7109375 -18.6796875 11.7109375 -17 10 C-13.8125 9.75 -13.8125 9.75 -11 10 C-10.9175 8.906875 -10.835 7.81375 -10.75 6.6875 C-10 3 -10 3 -8.3125 1.0625 C-5.26397123 -0.33817538 -3.32073048 -0.4842732 0 0 Z " fill="#FBF5F1" transform="translate(311,240)"/>
<path d="M0 0 C5.35378542 0.45889589 9.27128674 3.27128674 13 7 C13.5 9.375 13.5 9.375 13 12 C8.78951324 15.9888822 4.84298878 16.58444651 -0.828125 17.1171875 C-3 17 -3 17 -5 15 C-5.61328714 8.86712858 -4.98166784 5.94692065 -1 1 C-0.67 0.67 -0.34 0.34 0 0 Z " fill="#F9A1A2" transform="translate(311,251)"/>
<path d="M0 0 C0.66 0.33 1.32 0.66 2 1 C1.04832179 3.62758953 0.08902879 6.25194493 -0.875 8.875 C-1.14441406 9.62136719 -1.41382813 10.36773437 -1.69140625 11.13671875 C-3.7734375 16.7734375 -3.7734375 16.7734375 -6 19 C-6.70710678 20.64991582 -7.37943989 22.31562256 -8 24 C-8.66 24 -9.32 24 -10 24 C-9.79375 25.051875 -9.5875 26.10375 -9.375 27.1875 C-9.00036896 30.99624887 -9.28369933 32.66835752 -11 36 C-12.32 36 -13.64 36 -15 36 C-15.02696365 34.20841511 -15.04637917 32.41671527 -15.0625 30.625 C-15.07410156 29.62726563 -15.08570313 28.62953125 -15.09765625 27.6015625 C-15 25 -15 25 -14 23 C-14.66 22.67 -15.32 22.34 -16 22 C-14.68 21.34 -13.36 20.68 -12 20 C-12 18.68 -12 17.36 -12 16 C-11.34 16 -10.68 16 -10 16 C-9.87625 15.071875 -9.7525 14.14375 -9.625 13.1875 C-9 10 -9 10 -7 7 C-6.34 7 -5.68 7 -5 7 C-5 5.35 -5 3.7 -5 2 C-2.625 0.9375 -2.625 0.9375 0 0 Z " fill="#87543C" transform="translate(199,185)"/>
<path d="M0 0 C10.92644979 -0.29137199 10.92644979 -0.29137199 15 2 C15.66 2.66 16.32 3.32 17 4 C16.8125 7.5 16.8125 7.5 16 11 C11.0754853 14.2830098 5.82305673 13.11530805 0 13 C0 8.71 0 4.42 0 0 Z " fill="#F1F2EC" transform="translate(283,305)"/>
<path d="M0 0 C1.98 0.495 1.98 0.495 4 1 C4 11.23 4 21.46 4 32 C2.02 32.495 2.02 32.495 0 33 C-1.90849948 31.09150052 -1.13059633 27.68521226 -1.1328125 25.15625 C-1.13376923 24.47195923 -1.13472595 23.78766846 -1.13571167 23.0826416 C-1.1363933 21.63338123 -1.13454023 20.18411782 -1.13037109 18.73486328 C-1.12502252 16.50937072 -1.1303166 14.28407999 -1.13671875 12.05859375 C-1.13605797 10.65364539 -1.1347768 9.24869715 -1.1328125 7.84375 C-1.13168457 6.55662109 -1.13055664 5.26949219 -1.12939453 3.94335938 C-1 1 -1 1 0 0 Z " fill="#3B3E38" transform="translate(241,301)"/>
<path d="M0 0 C4.30687957 3.50342698 5.52996418 7.46073389 7.1875 12.5625 C7.57711914 13.71395508 7.57711914 13.71395508 7.97460938 14.88867188 C8.66077775 16.92235437 9.33299935 18.95996997 10 21 C10.33 21.99 10.66 22.98 11 24 C11.20835186 26.01696174 11.36747589 28.03914079 11.5 30.0625 C11.58121094 31.29355469 11.66242188 32.52460938 11.74609375 33.79296875 C12.2002632 41.19325921 12.6054731 48.59632493 13 56 C9.27843828 52.44024532 8.82812877 50.14738791 8.38671875 45.0234375 C7.14898971 23.97711761 7.14898971 23.97711761 1 4 C-1.01669827 2.86649466 -1.01669827 2.86649466 -3 2 C-2.01 2 -1.02 2 0 2 C0 1.34 0 0.68 0 0 Z " fill="#84675C" transform="translate(290,133)"/>
<path d="M0 0 C0.66 0 1.32 0 2 0 C2.33 0.99 2.66 1.98 3 3 C3.66 2.67 4.32 2.34 5 2 C5.75770785 6.11481205 6.17155355 10.09340234 6.31640625 14.2734375 C6.37924805 16.00400391 6.37924805 16.00400391 6.44335938 17.76953125 C6.48267578 18.95933594 6.52199219 20.14914063 6.5625 21.375 C6.60568359 22.58800781 6.64886719 23.80101562 6.69335938 25.05078125 C6.79905513 28.03375032 6.90115321 31.01679742 7 34 C7.99 33.01 8.98 32.02 10 31 C10.66 31.33 11.32 31.66 12 32 C10.515 34.475 10.515 34.475 9 37 C8.46375 36.690625 7.9275 36.38125 7.375 36.0625 C4.6015043 34.82172561 1.99957163 34.4090325 -1 34 C-1 33.67 -1 33.34 -1 33 C0.98 33 2.96 33 5 33 C4.42655063 30.13275314 4.1385485 29.1385485 2 27 C1.65625 25.0390625 1.65625 25.0390625 1.5 22.625 C1.10530957 17.58904249 0.27067887 12.71738679 -0.6953125 7.76171875 C-1.01054522 4.90441702 -0.71597586 2.76810387 0 0 Z " fill="#5A493B" transform="translate(306,206)"/>
<path d="M0 0 C1 2 1 2 0.46875 3.8828125 C-2.56503512 10.9045571 -6.57095804 16.71397203 -13 21 C-13.66 21.99 -14.32 22.98 -15 24 C-15.45375 22.865625 -15.9075 21.73125 -16.375 20.5625 C-17.57095806 16.95278308 -17.57095806 16.95278308 -20 16 C-20 15.34 -20 14.68 -20 14 C-17.525 14.99 -17.525 14.99 -15 16 C-14.67 15.34 -14.34 14.68 -14 14 C-13.67 13.67 -13.34 13.34 -13 13 C-12.31731862 11.67479497 -11.6492959 10.34187818 -11 9 C-11.66 8.67 -12.32 8.34 -13 8 C-12.360625 7.855625 -11.72125 7.71125 -11.0625 7.5625 C-9.02454854 7.18992819 -9.02454854 7.18992819 -8 6 C-10.97 5.505 -10.97 5.505 -14 5 C-14 4.67 -14 4.34 -14 4 C-13.32453125 3.96261719 -12.6490625 3.92523438 -11.953125 3.88671875 C-11.06109375 3.82097656 -10.1690625 3.75523437 -9.25 3.6875 C-8.36828125 3.62949219 -7.4865625 3.57148438 -6.578125 3.51171875 C-3.67696226 2.9358819 -2.20774393 1.92403852 0 0 Z " fill="#191C15" transform="translate(274,238)"/>
<path d="M0 0 C0 1.32 0 2.64 0 4 C0.99 4 1.98 4 3 4 C3.66 3.34 4.32 2.68 5 2 C6 3 6 3 6.25 5.8125 C6 9 6 9 5 11.375 C2.29455964 13.5731703 0.2912076 13.5712063 -3.125 13.3828125 C-5 13 -5 13 -7 11.375 C-8.2766188 8.34303035 -8.41616519 6.25996064 -8 3 C-5.87141064 -0.36093057 -3.79035926 -0.30732643 0 0 Z " fill="#161C14" transform="translate(218,194)"/>
<path d="M0 0 C5 2 5 2 10 4 C10.33 2.68 10.66 1.36 11 0 C12 1 12 1 12.3125 4.8125 C12.25797584 7.84404318 12.06632468 8.89122753 10.4375 11.5625 C8 13 8 13 4.4375 13 C1 12 1 12 -1 10.375 C-2.42775898 6.98407242 -1.79839691 4.526253 -1 1 C-0.67 0.67 -0.34 0.34 0 0 Z " fill="#1F221B" transform="translate(269,195)"/>
<path d="M0 0 C15.83219922 -0.92766792 15.83219922 -0.92766792 21.48046875 3.453125 C25.17229151 7.21138159 27.20389778 10.86925349 27.3125 16.25 C27 20 27 20 26 23 C24.35 23 22.7 23 21 23 C21.06960937 22.21496094 21.13921875 21.42992187 21.2109375 20.62109375 C21.66503524 14.4224424 21.66503524 14.4224424 19.6640625 8.71484375 C18.04497271 6.87173064 18.04497271 6.87173064 16.3125 5.3046875 C15.879375 4.87414062 15.44625 4.44359375 15 4 C15 3.34 15 2.68 15 2 C10.05 1.67 5.1 1.34 0 1 C0 0.67 0 0.34 0 0 Z " fill="#2B2C26" transform="translate(128,301)"/>
<path d="M0 0 C0.33 0.66 0.66 1.32 1 2 C1.66 2 2.32 2 3 2 C3.33 3.32 3.66 4.64 4 6 C4.64066406 6.02578125 5.28132813 6.0515625 5.94140625 6.078125 C11.62140285 6.45058379 16.65812882 7.01337283 21 11 C23.13507391 13.77559608 25.10743987 16.59782188 27.0078125 19.5390625 C29.19165624 22.23675183 30.71323054 23.0333031 34 24 C34 24.66 34 25.32 34 26 C30.08514857 25.42002201 27.8737448 23.65821394 25 21 C21 15.59459459 21 15.59459459 21 13 C19.88625 12.566875 19.88625 12.566875 18.75 12.125 C16 11 16 11 14.09375 9.95703125 C10.42658162 8.2808069 6.93990149 8.38337621 3 9 C-3.49097574 11.53277638 -7.27165457 16.30862421 -11 22 C-11 17.8783707 -9.47821082 16.2608037 -7 13 C-5.93375163 12.16520555 -4.84999006 11.35230329 -3.75 10.5625 C-0.59318591 8.19675458 -0.59318591 8.19675458 -0.6875 4.25 C-0.790625 3.1775 -0.89375 2.105 -1 1 C-0.67 0.67 -0.34 0.34 0 0 Z " fill="#4A4943" transform="translate(238,193)"/>
<path d="M0 0 C0.66 0.33 1.32 0.66 2 1 C3 4 3 4 3 12 C8.61 12 14.22 12 20 12 C20 12.33 20 12.66 20 13 C14.06 13 8.12 13 2 13 C2 13.66 2 14.32 2 15 C7.94 15.33 13.88 15.66 20 16 C20 16.33 20 16.66 20 17 C10.76 17 1.52 17 -8 17 C-8.99 19.475 -8.99 19.475 -10 22 C-13.6441774 24.4294516 -15.71241272 24.16179575 -20 24 C-20 23.67 -20 23.34 -20 23 C-16.97265625 22.36523438 -16.97265625 22.36523438 -13.9453125 21.73046875 C-11.62953451 21.07691162 -11.62953451 21.07691162 -10 18 C-9.60986284 16.0103005 -9.26797351 14.00980131 -9 12 C-8.443125 12.350625 -7.88625 12.70125 -7.3125 13.0625 C-4.42831368 14.23176473 -2.92713788 13.94934202 0 13 C1.36421031 10.27157939 0.87807211 8.39046682 0.5625 5.375 C0.46066406 4.37210937 0.35882813 3.36921875 0.25390625 2.3359375 C0.12822266 1.17964844 0.12822266 1.17964844 0 0 Z " fill="#4D4F49" transform="translate(209,260)"/>
<path d="M0 0 C0.66 0.33 1.32 0.66 2 1 C1.67 1.66 1.34 2.32 1 3 C1.99 3.33 2.98 3.66 4 4 C3.44570313 4.88042969 2.89140625 5.76085937 2.3203125 6.66796875 C1.58833173 7.84101486 0.85657261 9.0141993 0.125 10.1875 C-0.23980469 10.76564453 -0.60460937 11.34378906 -0.98046875 11.93945312 C-3.0085252 15.20278033 -4.70492051 18.38059362 -6 22 C-7.32 21.67 -8.64 21.34 -10 21 C-9.387826 16.8000214 -7.9185504 13.61230076 -5.9375 9.875 C-3.59877265 5.6601338 -3.59877265 5.6601338 -3 1 C-2.01 0.67 -1.02 0.34 0 0 Z " fill="#865D52" transform="translate(277,140)"/>
<path d="M0 0 C7.26 0 14.52 0 22 0 C22 1.32 22 2.64 22 4 C16.06 4 10.12 4 4 4 C4 7.63 4 11.26 4 15 C3.67 15 3.34 15 3 15 C2.92652344 13.95199219 2.92652344 13.95199219 2.8515625 12.8828125 C2.73941406 11.51769531 2.73941406 11.51769531 2.625 10.125 C2.55539063 9.22007812 2.48578125 8.31515625 2.4140625 7.3828125 C2.20431868 4.82058097 2.20431868 4.82058097 0 3 C0 2.01 0 1.02 0 0 Z " fill="#30312B" transform="translate(169,301)"/>
<path d="M0 0 C2.74401515 2.74401515 2.69268594 5.55761272 3.125 9.25 C3.29257813 10.55453125 3.46015625 11.8590625 3.6328125 13.203125 C3.95204417 16.5041163 4.07200533 19.68775489 4 23 C1.69 23 -0.62 23 -3 23 C-2.6902353 20.1038504 -2.37728812 17.20810424 -2.0625 14.3125 C-1.97548828 13.49587891 -1.88847656 12.67925781 -1.79882812 11.83789062 C-1.36241272 7.84549781 -0.88697624 3.92347148 0 0 Z " fill="#F3EADF" transform="translate(245,176)"/>
<path d="M0 0 C0.66 0.33 1.32 0.66 2 1 C2.33 9.91 2.66 18.82 3 28 C1.68 28.33 0.36 28.66 -1 29 C-2 28 -2 28 -2.03759766 25.42382812 C-1.99683105 24.30427734 -1.95606445 23.18472656 -1.9140625 22.03125 C-1.87023437 20.82082031 -1.82640625 19.61039063 -1.78125 18.36328125 C-1.7296875 17.08839844 -1.678125 15.81351563 -1.625 14.5 C-1.58117187 13.22511719 -1.53734375 11.95023438 -1.4921875 10.63671875 C-1.12762147 1.12762147 -1.12762147 1.12762147 0 0 Z " fill="#85553F" transform="translate(184,223)"/>
<path d="M0 0 C0.33 0 0.66 0 1 0 C1.19335938 1.13179687 1.38671875 2.26359375 1.5859375 3.4296875 C1.84854286 4.91153202 2.11158648 6.39329892 2.375 7.875 C2.50132812 8.62136719 2.62765625 9.36773437 2.7578125 10.13671875 C3.45268694 14.50990532 3.45268694 14.50990532 6 18 C6 19.32 6 20.64 6 22 C4.02 22 2.04 22 0 22 C0 22.66 0 23.32 0 24 C-1.98 24.99 -1.98 24.99 -4 26 C-3.505 24.515 -3.505 24.515 -3 23 C-2.34 23 -1.68 23 -1 23 C-1.00523682 22.44538086 -1.01047363 21.89076172 -1.01586914 21.31933594 C-1.03671031 18.79623557 -1.04968282 16.27315336 -1.0625 13.75 C-1.07087891 12.87730469 -1.07925781 12.00460938 -1.08789062 11.10546875 C-1.09111328 10.26113281 -1.09433594 9.41679687 -1.09765625 8.546875 C-1.10289307 7.77182617 -1.10812988 6.99677734 -1.11352539 6.19824219 C-1.00036998 4.00716402 -0.60552448 2.10362139 0 0 Z " fill="#885641" transform="translate(305,217)"/>
<path d="M0 0 C0.928125 0.0825 1.85625 0.165 2.8125 0.25 C-0.1875 2.25 -0.1875 2.25 -3.1875 3.25 C-3.1875 3.91 -3.1875 4.57 -3.1875 5.25 C-2.56875 5.04375 -1.95 4.8375 -1.3125 4.625 C-0.61125 4.50125 0.09 4.3775 0.8125 4.25 C1.4725 4.91 2.1325 5.57 2.8125 6.25 C2.4375 8.875 2.4375 8.875 1.8125 11.25 C0.8225 11.25 -0.1675 11.25 -1.1875 11.25 C-1.6515625 12.6421875 -1.6515625 12.6421875 -2.125 14.0625 C-2.8125 16.125 -3.5 18.1875 -4.1875 20.25 C-6.36413532 15.08049112 -7.0385889 9.79580508 -6.1875 4.25 C-3.91316062 0.30691456 -3.91316062 0.30691456 0 0 Z " fill="#EFECE6" transform="translate(297.1875,249.75)"/>
<path d="M0 0 C1.32 0.33 2.64 0.66 4 1 C3.360625 1.78375 2.72125 2.5675 2.0625 3.375 C-0.68766573 6.87521093 -1.06936558 8.52687154 -1.25 12.875 C-1.67783912 17.67783912 -1.67783912 17.67783912 -4.375 20.375 C-5.24125 20.91125 -6.1075 21.4475 -7 22 C-8.76323505 24.12603185 -8.76323505 24.12603185 -10 26 C-10.33 24.35 -10.66 22.7 -11 21 C-10.34 21 -9.68 21 -9 21 C-8.67 19.02 -8.34 17.04 -8 15 C-7.01 14.67 -6.02 14.34 -5 14 C-4.4734832 12.0584693 -3.9574149 10.11220568 -3.5390625 8.14453125 C-2.79660237 5.19083115 -1.4617463 2.65772054 0 0 Z " fill="#865F4D" transform="translate(200,188)"/>
<path d="M0 0 C1.48831242 0.00667405 2.97660807 0.01863442 4.46484375 0.03515625 C5.22345703 0.03966797 5.98207031 0.04417969 6.76367188 0.04882812 C8.64326246 0.06064945 10.52281274 0.07858547 12.40234375 0.09765625 C12.40234375 0.42765625 12.40234375 0.75765625 12.40234375 1.09765625 C5.96734375 1.59265625 5.96734375 1.59265625 -0.59765625 2.09765625 C-0.59765625 4.07765625 -0.59765625 6.05765625 -0.59765625 8.09765625 C-1.25765625 8.09765625 -1.91765625 8.09765625 -2.59765625 8.09765625 C-2.65582248 11.51425116 -2.6913082 14.9307183 -2.72265625 18.34765625 C-2.73941406 19.31574219 -2.75617188 20.28382813 -2.7734375 21.28125 C-2.77988281 22.21582031 -2.78632813 23.15039062 -2.79296875 24.11328125 C-2.80344238 24.97211914 -2.81391602 25.83095703 -2.82470703 26.71582031 C-2.58058948 29.27669221 -1.88756137 30.89276654 -0.59765625 33.09765625 C-1.91765625 32.76765625 -3.23765625 32.43765625 -4.59765625 32.09765625 C-4.62231129 27.70109452 -4.64049467 23.30456905 -4.65258789 18.90795898 C-4.65762746 17.41120707 -4.66445912 15.91446009 -4.6730957 14.41772461 C-4.68517784 12.27065818 -4.69088816 10.12365663 -4.6953125 7.9765625 C-4.70054932 6.68306885 -4.70578613 5.3895752 -4.71118164 4.05688477 C-4.54544506 -0.26331554 -4.44088395 0.12054517 0 0 Z " fill="#262822" transform="translate(283.59765625,300.90234375)"/>
<path d="M0 0 C1.47969017 2.95938034 2.46040611 5.33326073 3.375 8.4375 C4.6180905 12.30064277 6.19480257 15.00134068 9 18 C4.77336686 16.49048817 3.16921968 13.8148346 1 10 C0.67 8.35 0.34 6.7 0 5 C-6.27 4.67 -12.54 4.34 -19 4 C-18.67 3.01 -18.34 2.02 -18 1 C-12.06 0.67 -6.12 0.34 0 0 Z " fill="#28221C" transform="translate(229,272)"/>
<path d="M0 0 C0.99 0.33 1.98 0.66 3 1 C3.33 3.97 3.66 6.94 4 10 C6.475 10.99 6.475 10.99 9 12 C9 12.66 9 13.32 9 14 C7.02 14 5.04 14 3 14 C3 17.3 3 20.6 3 24 C2.01 24 1.02 24 0 24 C0 16.08 0 8.16 0 0 Z " fill="#161912" transform="translate(280,308)"/>
<path d="M0 0 C0 8.91 0 17.82 0 27 C-0.99 27 -1.98 27 -3 27 C-3 18.42 -3 9.84 -3 1 C-1 0 -1 0 0 0 Z " fill="#181B14" transform="translate(365,307)"/>
<path d="M0 0 C4.06492659 1.35497553 5.499349 3.88044621 8.0859375 7.1875 C10.36283293 9.34358057 11.92772342 9.66215515 15 10 C15.33 9.01 15.66 8.02 16 7 C18.0625 6.3125 18.0625 6.3125 20 6 C20 6.66 20 7.32 20 8 C19.21625 8.721875 18.4325 9.44375 17.625 10.1875 C12.50479269 15.6734364 12.54827366 22.82915765 12 30 C9.60918476 25.87124599 10.01894252 22.54526628 11 18 C12.0625 15 12.0625 15 13 13 C12.319375 12.835 11.63875 12.67 10.9375 12.5 C5.91165812 9.93361266 1.79026009 5.37078028 0 0 Z " fill="#513C36" transform="translate(219,246)"/>
<path d="M0 0 C7.17992327 -0.56983518 12.27160263 0.39790486 18 5 C20.52440235 8.82906289 19.84970009 11.58155951 19 16 C18.67 16 18.34 16 18 16 C18 13.36 18 10.72 18 8 C13.05 7.01 8.1 6.02 3 5 C3 4.01 3 3.02 3 2 C2.01 1.34 1.02 0.68 0 0 Z " fill="#EBECE6" transform="translate(241,201)"/>
<path d="M0 0 C1.3293457 0.00483398 1.3293457 0.00483398 2.68554688 0.00976562 C3.59755859 0.01814453 4.50957031 0.02652344 5.44921875 0.03515625 C6.38056641 0.03966797 7.31191406 0.04417969 8.27148438 0.04882812 C10.55996248 0.06056391 12.84830683 0.07698262 15.13671875 0.09765625 C14.80671875 0.75765625 14.47671875 1.41765625 14.13671875 2.09765625 C13.52675049 2.11747559 12.91678223 2.13729492 12.28833008 2.15771484 C9.50821342 2.25333501 6.72881029 2.3628633 3.94921875 2.47265625 C2.5096582 2.5190625 2.5096582 2.5190625 1.04101562 2.56640625 C-0.35600586 2.62441406 -0.35600586 2.62441406 -1.78125 2.68359375 C-3.06165161 2.7307251 -3.06165161 2.7307251 -4.36791992 2.77880859 C-7.13297757 3.13211701 -9.303331 4.01876206 -11.86328125 5.09765625 C-12.93578125 5.26265625 -14.00828125 5.42765625 -15.11328125 5.59765625 C-16.02078125 5.76265625 -16.92828125 5.92765625 -17.86328125 6.09765625 C-18.19328125 6.75765625 -18.52328125 7.41765625 -18.86328125 8.09765625 C-18.86328125 6.77765625 -18.86328125 5.45765625 -18.86328125 4.09765625 C-17.46879016 3.61459725 -16.07261418 3.13640108 -14.67578125 2.66015625 C-13.89847656 2.39332031 -13.12117187 2.12648437 -12.3203125 1.8515625 C-8.17978239 0.58109777 -4.33046567 -0.02793849 0 0 Z " fill="#7F5F4E" transform="translate(240.86328125,158.90234375)"/>
<path d="M0 0 C-3 2 -3 2 -6 3 C-6.92547185 5.77641555 -7.27208142 7.99289564 -7.53515625 10.88671875 C-7.62216797 11.82451172 -7.70917969 12.76230469 -7.79882812 13.72851562 C-7.88583984 14.70498047 -7.97285156 15.68144531 -8.0625 16.6875 C-8.15337891 17.67556641 -8.24425781 18.66363281 -8.33789062 19.68164062 C-8.56177679 22.12082148 -8.78235239 24.56025587 -9 27 C-9.33 27 -9.66 27 -10 27 C-10 24.36 -10 21.72 -10 19 C-10.66 19 -11.32 19 -12 19 C-11.96691357 16.41324275 -11.89971107 13.83502562 -11.8125 11.25 C-11.80669922 10.52039063 -11.80089844 9.79078125 -11.79492188 9.0390625 C-11.63674917 5.17261863 -11.3199602 3.34555701 -8.65625 0.46875 C-5.30834601 -1.38244397 -3.61574352 -1.0090447 0 0 Z " fill="#E4A7A6" transform="translate(256,254)"/>
<path d="M0 0 C0.33 0 0.66 0 1 0 C2.32665541 4.97495779 2.15193161 9.8982966 2 15 C1.979375 16.2375 1.95875 17.475 1.9375 18.75 C0.61700425 23.32771859 -2.15967657 25.35700605 -6 28 C-8.76452033 29.38226016 -11.0461363 29.09525387 -14.125 29.0625 C-15.22070312 29.05347656 -16.31640625 29.04445313 -17.4453125 29.03515625 C-18.70988281 29.01775391 -18.70988281 29.01775391 -20 29 C-20.33 28.34 -20.66 27.68 -21 27 C-20.19175781 27.03480469 -19.38351563 27.06960938 -18.55078125 27.10546875 C-17.48214844 27.13253906 -16.41351563 27.15960938 -15.3125 27.1875 C-13.72888672 27.23970703 -13.72888672 27.23970703 -12.11328125 27.29296875 C-8.54857445 26.95751955 -6.80919605 26.19468441 -4 24 C0.93662235 16.8001697 0.43373377 8.36142319 0 0 Z " fill="#A17875" transform="translate(259,263)"/>
<path d="M0 0 C0.80179688 0.00451172 1.60359375 0.00902344 2.4296875 0.01367188 C4.41149006 0.02546832 6.39325433 0.04340395 8.375 0.0625 C8.045 1.3825 7.715 2.7025 7.375 4.0625 C2.095 4.0625 -3.185 4.0625 -8.625 4.0625 C-8.625 3.4025 -8.625 2.7425 -8.625 2.0625 C-9.285 1.7325 -9.945 1.4025 -10.625 1.0625 C-7.31505287 -0.59247356 -3.63377 -0.03834335 0 0 Z " fill="#32362F" transform="translate(181.625,315.9375)"/>
<path d="M0 0 C1.19882813 0.15275391 1.19882813 0.15275391 2.421875 0.30859375 C3.02515625 0.39238281 3.6284375 0.47617188 4.25 0.5625 C4.25 0.8925 4.25 1.2225 4.25 1.5625 C3.40695313 1.69527344 2.56390625 1.82804688 1.6953125 1.96484375 C0.59960938 2.14144531 -0.49609375 2.31804687 -1.625 2.5 C-2.71554688 2.67402344 -3.80609375 2.84804687 -4.9296875 3.02734375 C-7.68821546 3.41801159 -7.68821546 3.41801159 -9.75 4.5625 C-9.4944669 10.42698454 -9.09242429 14.22007571 -4.75 18.5625 C-5.74 18.8925 -6.73 19.2225 -7.75 19.5625 C-11.71479451 14.8303259 -13.11351442 11.53433666 -13.03515625 5.43359375 C-12.75 3.5625 -12.75 3.5625 -11 1.625 C-7.12697114 -0.2039303 -4.24634539 -0.5620163 0 0 Z " fill="#2F322C" transform="translate(244.75,206.4375)"/>
<path d="M0 0 C2.32221873 3.77360544 2 5.01199411 2 10 C17.345 9.505 17.345 9.505 33 9 C33 9.66 33 10.32 33 11 C23.43 11.33 13.86 11.66 4 12 C5.65 12.33 7.3 12.66 9 13 C9 13.33 9 13.66 9 14 C6.69 14 4.38 14 2 14 C1.67 15.98 1.34 17.96 1 20 C-0.14982602 15.90996141 -0.11094256 11.96822949 -0.0625 7.75 C-0.05798828 7.00492187 -0.05347656 6.25984375 -0.04882812 5.4921875 C-0.03709246 3.6614236 -0.0191585 1.83070127 0 0 Z " fill="#5F5551" transform="translate(260,262)"/>
<path d="M0 0 C1.32 0 2.64 0 4 0 C2.64530893 4.43353442 0.97128752 6.58269455 -3 9 C-5.70233303 9.60163258 -8.22223595 9.81167701 -11 10 C-9.5967029 6.55420765 -8.14225045 5.15624935 -4.9375 3.3125 C-2.30980579 1.86388409 -2.30980579 1.86388409 0 0 Z " fill="#22231D" transform="translate(149,324)"/>
<path d="M0 0 C2.31 0 4.62 0 7 0 C7.99 2.31 8.98 4.62 10 7 C9.21625 7.45375 8.4325 7.9075 7.625 8.375 C4.96301969 9.88428742 4.96301969 9.88428742 3 12 C3 10.02 3 8.04 3 6 C2.34 6 1.68 6 1 6 C0.67 4.02 0.34 2.04 0 0 Z " fill="#FEEFE9" transform="translate(304,244)"/>
<path d="M0 0 C6.6 0 13.2 0 20 0 C20 0.99 20 1.98 20 3 C14.06 3 8.12 3 2 3 C1.67 3.99 1.34 4.98 1 6 C0.67 4.02 0.34 2.04 0 0 Z " fill="#191A14" transform="translate(207,302)"/>
<path d="M0 0 C0.33 0.99 0.66 1.98 1 3 C2.32 2.67 3.64 2.34 5 2 C5.66 3.65 6.32 5.3 7 7 C7.99 6.34 8.98 5.68 10 5 C12.1875 5.375 12.1875 5.375 14 6 C12.4375 8.0625 12.4375 8.0625 10 10 C6.17610254 10 3.94388664 9.85254277 1.0625 7.25 C-0.16717908 4.64597372 -0.23723981 2.84687774 0 0 Z M7 4 C9 5 9 5 9 5 Z " fill="#2D2F29" transform="translate(267,198)"/>
<path d="M0 0 C0.66 0 1.32 0 2 0 C2.99 5.61 3.98 11.22 5 17 C5.99 17.33 6.98 17.66 8 18 C7.67 20.31 7.34 22.62 7 25 C5.35 24.67 3.7 24.34 2 24 C1.93941406 23.10539062 1.87882813 22.21078125 1.81640625 21.2890625 C1.32367008 14.17850052 0.76742182 7.08640578 0 0 Z " fill="#7E5C4B" transform="translate(246,176)"/>
<path d="M0 0 C0.33 0.66 0.66 1.32 1 2 C1.66 2 2.32 2 3 2 C3.66 3.65 4.32 5.3 5 7 C3.13755961 9.17284712 1.69971449 10.14055918 -0.9375 11.375 C-4.33396373 13.17720524 -5.75166692 14.92727812 -8 18 C-9.31494512 19.35147138 -10.64264858 20.69112542 -12 22 C-10.49665796 16.65478385 -6.82879909 12.86491984 -3 9 C-2.34 8.67 -1.68 8.34 -1 8 C-1.020625 6.865625 -1.04125 5.73125 -1.0625 4.5625 C-1 1 -1 1 0 0 Z " fill="#5C4F45" transform="translate(238,193)"/>
<path d="M0 0 C0.33 0.66 0.66 1.32 1 2 C0.01 2.33 -0.98 2.66 -2 3 C-2 2.34 -2 1.68 -2 1 C-2.66 1 -3.32 1 -4 1 C-3.67 2.65 -3.34 4.3 -3 6 C-3.99 6 -4.98 6 -6 6 C-6 5.01 -6 4.02 -6 3 C-6.66 3 -7.32 3 -8 3 C-8.10957031 3.61488281 -8.21914062 4.22976563 -8.33203125 4.86328125 C-8.49058594 5.67152344 -8.64914063 6.47976563 -8.8125 7.3125 C-8.96332031 8.11300781 -9.11414063 8.91351563 -9.26953125 9.73828125 C-10.07572236 12.23445587 -11.02052002 13.32422106 -13 15 C-11.41801189 4.27994902 -11.41801189 4.27994902 -7 0 C-4.30234372 -1.34882814 -2.84835666 -0.80338265 0 0 Z " fill="#DF9F9F" transform="translate(244,254)"/>
<path d="M0 0 C0.66 1.65 1.32 3.3 2 5 C1.34 5 0.68 5 0 5 C-0.33 5.99 -0.66 6.98 -1 8 C-2.65 7.67 -4.3 7.34 -6 7 C-6.66 5.02 -7.32 3.04 -8 1 C-5.29120665 -0.35439668 -2.99066732 -0.06501451 0 0 Z " fill="#EDDBD5" transform="translate(335,243)"/>
<path d="M0 0 C0.33 0 0.66 0 1 0 C2.14806378 18.82004556 2.14806378 18.82004556 2 28 C1.01 28.33 0.02 28.66 -1 29 C-2.50156874 25.99686252 -2.09281204 23.20932478 -2.0625 19.875 C-2.05347656 18.59367187 -2.04445312 17.31234375 -2.03515625 15.9921875 C-2.02355469 15.00476563 -2.01195312 14.01734375 -2 13 C-1.67 13 -1.34 13 -1 13 C-0.67 8.71 -0.34 4.42 0 0 Z " fill="#715D4F" transform="translate(181,224)"/>
<path d="M0 0 C1.5 1.3125 1.5 1.3125 3 3 C3 3.99 3 4.98 3 6 C3.66 6 4.32 6 5 6 C7.125 7.875 7.125 7.875 9 10 C9 10.66 9 11.32 9 12 C16.05651252 12.14975239 16.05651252 12.14975239 23 11 C19.17721777 14.29550192 16.4783384 14.63017617 11.54296875 14.484375 C7.25330761 13.66729669 4.69577981 11.33239254 2 8 C0.37648923 4.96474074 0 3.43801737 0 0 Z " fill="#E1A6A6" transform="translate(231,277)"/>
<path d="M0 0 C3.63 0 7.26 0 11 0 C11 1.32 11 2.64 11 4 C6.71 4 2.42 4 -2 4 C-2 3.34 -2 2.68 -2 2 C-1.34 2 -0.68 2 0 2 C0 1.34 0 0.68 0 0 Z " fill="#1A1C15" transform="translate(328,330)"/>
<path d="M0 0 C0.391875 0.556875 0.78375 1.11375 1.1875 1.6875 C5.0158076 6.94732673 5.0158076 6.94732673 10.6875 9.4375 C13.18582291 9.18973497 13.18582291 9.18973497 15 7 C15.69748583 5.68252676 16.36959957 4.35085807 17 3 C17.99 4.485 17.99 4.485 19 6 C18.34 6 17.68 6 17 6 C16.34 7.65 15.68 9.3 15 11 C11.3587149 11.78537522 8.85145344 12.31681989 5.3125 11 C2.1778003 8.28890837 0.77377347 5.75221311 -1 2 C-0.67 1.34 -0.34 0.68 0 0 Z " fill="#393933" transform="translate(170,277)"/>
<path d="M0 0 C0.66 0.66 1.32 1.32 2 2 C-1.58349592 7.12109523 -5.11520231 11.11436548 -10 15 C-10.99 16.485 -10.99 16.485 -12 18 C-12.45375 16.865625 -12.9075 15.73125 -13.375 14.5625 C-14.57095806 10.95278308 -14.57095806 10.95278308 -17 10 C-17 9.34 -17 8.68 -17 8 C-14.525 8.99 -14.525 8.99 -12 10 C-12 10.66 -12 11.32 -12 12 C-6.38641099 10.67915553 -4.00405646 6.56312373 -1 2 C-0.67 1.34 -0.34 0.68 0 0 Z " fill="#383B36" transform="translate(271,244)"/>
<path d="M0 0 C0.61875 0.474375 1.2375 0.94875 1.875 1.4375 C6.16105676 3.58052838 10.26600709 3.73342564 15 4 C15 4.66 15 5.32 15 6 C13.1746875 6.2165625 13.1746875 6.2165625 11.3125 6.4375 C8.17329623 6.82780953 5.0924866 7.32351856 2 8 C0.23537317 4.91190305 0 3.76687864 0 0 Z " fill="#292C25" transform="translate(217,238)"/>
<path d="M0 0 C1.9375 0.6875 1.9375 0.6875 4 2 C4.75 4.625 4.75 4.625 5 7 C1.91190305 8.76462683 0.76687864 9 -3 9 C-3 7.35 -3 5.7 -3 4 C-2.01 3.67 -1.02 3.34 0 3 C0 2.01 0 1.02 0 0 Z " fill="#F5EAE7" transform="translate(322,237)"/>
<path d="M0 0 C5.75 -0.125 5.75 -0.125 8 1 C8.57798165 12.02446483 8.57798165 12.02446483 5 16 C4.01 16 3.02 16 2 16 C2.47566406 15.15695313 2.47566406 15.15695313 2.9609375 14.296875 C4.06874525 11.84803683 4.38975399 9.91612145 4.625 7.25 C4.73714844 6.05117187 4.73714844 6.05117187 4.8515625 4.828125 C4.90054688 4.22484375 4.94953125 3.6215625 5 3 C2.525 2.01 2.525 2.01 0 1 C0 0.67 0 0.34 0 0 Z " fill="#22261F" transform="translate(251,208)"/>
<path d="M0 0 C1.89685547 0.05220703 1.89685547 0.05220703 3.83203125 0.10546875 C5.74048828 0.14607422 5.74048828 0.14607422 7.6875 0.1875 C9.15123047 0.23970703 9.15123047 0.23970703 10.64453125 0.29296875 C10.64453125 1.28296875 10.64453125 2.27296875 10.64453125 3.29296875 C5.03453125 3.29296875 -0.57546875 3.29296875 -6.35546875 3.29296875 C-3.35546875 0.29296875 -3.35546875 0.29296875 0 0 Z " fill="#171B14" transform="translate(327.35546875,315.70703125)"/>
<path d="M0 0 C4.51020195 0.38658874 7.38429295 2.39332748 11 5 C10.34 5.66 9.68 6.32 9 7 C8.67 6.34 8.34 5.68 8 5 C6.11736119 4.09656316 6.11736119 4.09656316 3.9375 3.375 C3.20402344 3.11460937 2.47054688 2.85421875 1.71484375 2.5859375 C0.86599609 2.29589844 0.86599609 2.29589844 0 2 C-0.19335938 2.68707031 -0.38671875 3.37414062 -0.5859375 4.08203125 C-0.84632813 4.98308594 -1.10671875 5.88414062 -1.375 6.8125 C-1.63023437 7.70582031 -1.88546875 8.59914063 -2.1484375 9.51953125 C-3 12 -3 12 -5 15 C-5.42277492 8.86976372 -4.99795398 5.96715495 -1 1 C-0.67 0.67 -0.34 0.34 0 0 Z " fill="#E9ACAC" transform="translate(311,251)"/>
<path d="M0 0 C1.18851562 0.00902344 2.37703125 0.01804687 3.6015625 0.02734375 C4.51679688 0.03894531 5.43203125 0.05054688 6.375 0.0625 C6.375 1.0525 6.375 2.0425 6.375 3.0625 C1.425 3.0625 -3.525 3.0625 -8.625 3.0625 C-8.625 2.4025 -8.625 1.7425 -8.625 1.0625 C-5.74084117 -0.37957941 -3.20778472 -0.03144887 0 0 Z " fill="#191813" transform="translate(291.625,301.9375)"/>
<path d="M0 0 C4.29 1.32 8.58 2.64 13 4 C10.4345406 6.5654594 8.52313332 6.54046087 5 7 C5 6.01 5 5.02 5 4 C3.35 4.33 1.7 4.66 0 5 C-0.5625 3.0625 -0.5625 3.0625 -1 1 C-0.67 0.67 -0.34 0.34 0 0 Z " fill="#7F5A45" transform="translate(259,160)"/>
<path d="M0 0 C1.32 1.32 2.64 2.64 4 4 C2.68 6.64 1.36 9.28 0 12 C-1.32 11.67 -2.64 11.34 -4 11 C-3.39301257 6.87248551 -1.96189209 3.6678852 0 0 Z " fill="#856457" transform="translate(271,150)"/>
<path d="M0 0 C0.66 0.33 1.32 0.66 2 1 C2.375 3.25 2.375 3.25 2 6 C-2.74645069 10.49663749 -7.64967609 10.74899906 -14 11 C-11.47047712 7.84888788 -9.23243734 7.41201983 -5.3125 6.8125 C-4.31863281 6.65394531 -3.32476562 6.49539063 -2.30078125 6.33203125 C-1.54152344 6.22246094 -0.78226562 6.11289062 0 6 C0 4.02 0 2.04 0 0 Z " fill="#ECAEAD" transform="translate(322,257)"/>
<path d="M0 0 C3.81936528 1.55603771 6.26044438 3.95604931 9 7 C9 7.66 9 8.32 9 9 C11.97 9 14.94 9 18 9 C18 9.33 18 9.66 18 10 C14.04 10 10.08 10 6 10 C6 9.34 6 8.68 6 8 C5.34 8 4.68 8 4 8 C2.96210419 6.35666496 1.96432076 4.68756133 1 3 C0.34 2.34 -0.32 1.68 -1 1 C-0.67 0.67 -0.34 0.34 0 0 Z " fill="#353630" transform="translate(251,234)"/>
<path d="M0 0 C2.625 0.375 2.625 0.375 5 1 C4.25 3.9375 4.25 3.9375 3 7 C0.875 7.875 0.875 7.875 -1 8 C-1.33 7.34 -1.66 6.68 -2 6 C-2.99 6.495 -2.99 6.495 -4 7 C-2.92598892 4.08482708 -2.22189824 2.22189824 0 0 Z " fill="#674437" transform="translate(279,135)"/>
<path d="M0 0 C1.32 0 2.64 0 4 0 C4 0.99 4 1.98 4 3 C3.01 3.495 3.01 3.495 2 4 C1.27306096 5.97888961 0.60183749 7.97954558 0 10 C-1.32 9.34 -2.64 8.68 -4 8 C-3.34 7.67 -2.68 7.34 -2 7 C-2.33 6.01 -2.66 5.02 -3 4 C-1.8125 1.8125 -1.8125 1.8125 0 0 Z " fill="#F7EFE8" transform="translate(318,237)"/>
<path d="M0 0 C3.0625 0.125 3.0625 0.125 5.0625 1.125 C5.0625 2.775 5.0625 4.425 5.0625 6.125 C0.74857774 5.6456753 -1.10319547 4.3792015 -3.9375 1.125 C-2.9375 0.125 -2.9375 0.125 0 0 Z " fill="#9EA19A" transform="translate(273.9375,192.875)"/>
<path d="M0 0 C5.28 0 10.56 0 16 0 C16 0.33 16 0.66 16 1 C9.565 1.495 9.565 1.495 3 2 C3 3.98 3 5.96 3 8 C2.01 7.67 1.02 7.34 0 7 C0 4.69 0 2.38 0 0 Z " fill="#3C3D37" transform="translate(280,301)"/>
<path d="M0 0 C-0.928125 1.36125 -0.928125 1.36125 -1.875 2.75 C-3.44389611 5.14948817 -4.80443821 7.40961612 -6 10 C-7.65 8.68 -9.3 7.36 -11 6 C-8 4 -8 4 -5 4 C-5 3.34 -5 2.68 -5 2 C-5.66 1.34 -6.32 0.68 -7 0 C-3.86650268 -1.04449911 -3.01031744 -0.93423645 0 0 Z " fill="#FEF0ED" transform="translate(327,246)"/>
<path d="M0 0 C0.78375 0.474375 1.5675 0.94875 2.375 1.4375 C3.88948678 2.33898023 5.4235897 3.21179485 7 4 C7 4.99 7 5.98 7 7 C5.02 7 3.04 7 1 7 C1 7.66 1 8.32 1 9 C-0.98 9.99 -0.98 9.99 -3 11 C-2.67 10.01 -2.34 9.02 -2 8 C-1.34 8 -0.68 8 0 8 C0 5.36 0 2.72 0 0 Z " fill="#897262" transform="translate(304,232)"/>
<path d="M0 0 C0.33 0.66 0.66 1.32 1 2 C0.0625 4.625 0.0625 4.625 -1 7 C-1.66 7 -2.32 7 -3 7 C-3.103125 7.639375 -3.20625 8.27875 -3.3125 8.9375 C-3.539375 9.618125 -3.76625 10.29875 -4 11 C-4.99 11.33 -5.98 11.66 -7 12 C-7.66 11.34 -8.32 10.68 -9 10 C-6.03 6.7 -3.06 3.4 0 0 Z " fill="#775746" transform="translate(202,175)"/>
<path d="M0 0 C1.17949219 0.20367187 2.35898438 0.40734375 3.57421875 0.6171875 C4.47785156 0.78476562 5.38148438 0.95234375 6.3125 1.125 C6.3125 1.455 6.3125 1.785 6.3125 2.125 C4.7301994 2.46320166 3.14660625 2.79535939 1.5625 3.125 C0.23992187 3.4034375 0.23992187 3.4034375 -1.109375 3.6875 C-3.98990734 4.17631761 -6.77302345 4.125 -9.6875 4.125 C-9.6875 3.135 -9.6875 2.145 -9.6875 1.125 C-5.84419804 -1.43720131 -4.45559323 -0.79406612 0 0 Z " fill="#F8F4F1" transform="translate(242.6875,290.875)"/>
<path d="M0 0 C2.97 0.99 5.94 1.98 9 3 C9 3.33 9 3.66 9 4 C6.36 4 3.72 4 1 4 C0.9175 4.763125 0.835 5.52625 0.75 6.3125 C0 9 0 9 -1.625 10.8125 C-4.8313755 12.41568775 -7.46750852 12.20379759 -11 12 C-11 11.67 -11 11.34 -11 11 C-8.98177083 10.57682292 -6.96354167 10.15364583 -4.9453125 9.73046875 C-2.62953451 9.07691162 -2.62953451 9.07691162 -1 6 C-0.60986284 4.0103005 -0.26797351 2.00980131 0 0 Z " fill="#2B2A25" transform="translate(200,272)"/>
<path d="M0 0 C0.33 0 0.66 0 1 0 C1.79681084 8.02502344 2.12867289 15.93649887 2 24 C1.67 24 1.34 24 1 24 C1 21.36 1 18.72 1 16 C0.34 16 -0.32 16 -1 16 C-0.67 10.72 -0.34 5.44 0 0 Z " fill="#C48680" transform="translate(245,257)"/>
<path d="M0 0 C0.66 0.99 1.32 1.98 2 3 C1.360625 3.4125 0.72125 3.825 0.0625 4.25 C-2.15265362 5.78494228 -2.15265362 5.78494228 -2.5 8 C-3.1894952 10.7579808 -4.67564718 11.50041754 -7 13 C-7.33 12.01 -7.66 11.02 -8 10 C-5.78310719 6.14096436 -3.25519625 3.02268223 0 0 Z " fill="#F5EAE3" transform="translate(198,204)"/>
<path d="M0 0 C0.99 0 1.98 0 3 0 C2.34 6.27 1.68 12.54 1 19 C0.67 19 0.34 19 0 19 C0.01160156 18.15695313 0.02320313 17.31390625 0.03515625 16.4453125 C0.04417969 15.34960938 0.05320313 14.25390625 0.0625 13.125 C0.07410156 12.03445312 0.08570313 10.94390625 0.09765625 9.8203125 C0.19744303 7.04822454 0.19744303 7.04822454 -1 5 C-0.72057545 3.32345271 -0.39171753 1.65391846 0 0 Z " fill="#875A4B" transform="translate(242,177)"/>
<path d="M0 0 C2.41734542 -0.08117951 4.83194949 -0.14056926 7.25 -0.1875 C7.93191406 -0.21263672 8.61382812 -0.23777344 9.31640625 -0.26367188 C12.59199289 -0.31137459 14.65348556 -0.21085076 17.484375 1.51171875 C17.98453125 2.00285156 18.4846875 2.49398438 19 3 C18.34 4.32 17.68 5.64 17 7 C16.34 5.35 15.68 3.7 15 2 C10.05 1.67 5.1 1.34 0 1 C0 0.67 0 0.34 0 0 Z " fill="#4B4C46" transform="translate(128,301)"/>
<path d="M0 0 C0.556875 0.185625 1.11375 0.37125 1.6875 0.5625 C4.399133 1.07551165 6.34371039 0.6640724 9 0 C8.51917969 0.52078125 8.03835937 1.0415625 7.54296875 1.578125 C5.54826135 4.70905813 5.49681589 7.06368221 5.3125 10.75 C5.24675781 11.92046875 5.18101562 13.0909375 5.11328125 14.296875 C5.07589844 15.18890625 5.03851563 16.0809375 5 17 C4.67 17 4.34 17 4 17 C3.96261719 16.16855469 3.92523438 15.33710938 3.88671875 14.48046875 C3.82097656 13.39378906 3.75523437 12.30710937 3.6875 11.1875 C3.62949219 10.10855469 3.57148438 9.02960938 3.51171875 7.91796875 C2.9568427 4.75390454 2.36735977 4.01193847 0 2 C0 1.34 0 0.68 0 0 Z " fill="#4F3029" transform="translate(242,252)"/>
<path d="M0 0 C1 2 1 2 0.25 4.5625 C-1 7 -1 7 -4 8 C-4.66 7.34 -5.32 6.68 -6 6 C-8.65537372 5.43479997 -11.29144713 5.26211802 -14 5 C-14 4.67 -14 4.34 -14 4 C-13.32453125 3.96261719 -12.6490625 3.92523438 -11.953125 3.88671875 C-11.06109375 3.82097656 -10.1690625 3.75523437 -9.25 3.6875 C-8.36828125 3.62949219 -7.4865625 3.57148438 -6.578125 3.51171875 C-3.67696226 2.9358819 -2.20774393 1.92403852 0 0 Z " fill="#262721" transform="translate(274,238)"/>
<path d="M0 0 C0.33 0 0.66 0 1 0 C1 5.94 1 11.88 1 18 C0.34 17.67 -0.32 17.34 -1 17 C-1.4140625 14.71484375 -1.4140625 14.71484375 -1.625 11.9375 C-1.69976562 11.01839844 -1.77453125 10.09929687 -1.8515625 9.15234375 C-1.90054687 8.44207031 -1.94953125 7.73179687 -2 7 C-1.67 7 -1.34 7 -1 7 C-0.67 4.69 -0.34 2.38 0 0 Z " fill="#8A6252" transform="translate(309,216)"/>
<path d="M0 0 C5.59282842 1.36410449 8.91193811 4.15383526 13 8 C12.01 8.495 12.01 8.495 11 9 C5.76986166 7.02416996 3.27429093 4.33362035 0 0 Z " fill="#7E614E" transform="translate(274,166)"/>
<path d="M0 0 C0.8353125 0.37125 0.8353125 0.37125 1.6875 0.75 C0.6975 1.08 -0.2925 1.41 -1.3125 1.75 C-1.8075 2.41 -2.3025 3.07 -2.8125 3.75 C-4.3125 5.75 -4.3125 5.75 -7.3125 6.75 C-9.01132448 9.24759982 -9.01132448 9.24759982 -10.3125 11.75 C-10.6425 11.09 -10.9725 10.43 -11.3125 9.75 C-4.99798387 -0.54032258 -4.99798387 -0.54032258 0 0 Z " fill="#F8ECE0" transform="translate(266.3125,182.25)"/>
<path d="M0 0 C2.0625 0.4375 2.0625 0.4375 4 1 C4.33 2.32 4.66 3.64 5 5 C3.02 5.33 1.04 5.66 -1 6 C-1.042721 4.33388095 -1.04063832 2.66617115 -1 1 C-0.67 0.67 -0.34 0.34 0 0 Z " fill="#E8B4B8" transform="translate(295,254)"/>
<path d="M0 0 C0.91007813 0.00902344 1.82015625 0.01804688 2.7578125 0.02734375 C3.45648438 0.03894531 4.15515625 0.05054688 4.875 0.0625 C4.875 1.0525 4.875 2.0425 4.875 3.0625 C1.86468256 3.99673645 1.00849732 4.10699911 -2.125 3.0625 C-3.115 3.0625 -4.105 3.0625 -5.125 3.0625 C-5.785 2.4025 -6.445 1.7425 -7.125 1.0625 C-4.60024538 -0.19987731 -2.81299534 -0.03606404 0 0 Z " fill="#EDEEE8" transform="translate(193.125,250.9375)"/>
<path d="M0 0 C3.17370278 0 4.3794668 0.30933342 7 2 C9.19228391 4.81865074 8.98890601 6.11093985 8.625 9.75 C8.41875 10.8225 8.2125 11.895 8 13 C7.67 13 7.34 13 7 13 C7 10.36 7 7.72 7 5 C4.36 4.34 1.72 3.68 -1 3 C-0.67 2.01 -0.34 1.02 0 0 Z " fill="#DADCD5" transform="translate(252,204)"/>
<path d="M0 0 C5.53846154 -0.36923077 5.53846154 -0.36923077 7.875 1.5 C8.24625 1.995 8.6175 2.49 9 3 C8.01 4.485 8.01 4.485 7 6 C5.68 5.67 4.36 5.34 3 5 C3 4.01 3 3.02 3 2 C2.01 1.34 1.02 0.68 0 0 Z " fill="#CCCFC8" transform="translate(214,193)"/>
<path d="M0 0 C0.66 0.33 1.32 0.66 2 1 C-0.31 5.29 -2.62 9.58 -5 14 C-5.66 14 -6.32 14 -7 14 C-5.23570801 9.02790438 -2.6060834 4.56561939 0 0 Z " fill="#34271B" transform="translate(273,143)"/>
<path d="M0 0 C3.41459553 1.13819851 4.3324158 2.24005518 6.625 4.9375 C7.23601562 5.64777344 7.84703125 6.35804688 8.4765625 7.08984375 C10 9 10 9 11 11 C7.49490749 10.43736042 6.04731992 9.34814818 3.8125 6.625 C3.30332031 6.01914063 2.79414063 5.41328125 2.26953125 4.7890625 C1 3 1 3 0 0 Z " fill="#41413D" transform="translate(219,246)"/>
<path d="M0 0 C0.66 0.33 1.32 0.66 2 1 C1.67 6.28 1.34 11.56 1 17 C0.67 17 0.34 17 0 17 C-0.33 12.71 -0.66 8.42 -1 4 C-1.66 4 -2.32 4 -3 4 C-3 3.01 -3 2.02 -3 1 C-2.01 0.67 -1.02 0.34 0 0 Z " fill="#87604E" transform="translate(186,220)"/>
<path d="M0 0 C0 0.66 0 1.32 0 2 C-1.7902061 2.67057887 -3.58221489 3.3363469 -5.375 4 C-6.37273437 4.37125 -7.37046875 4.7425 -8.3984375 5.125 C-11 6 -11 6 -13 6 C-13 5.34 -13 4.68 -13 4 C-4.738041 -0.59225513 -4.738041 -0.59225513 0 0 Z " fill="#23170B" transform="translate(230,159)"/>
<path d="M0 0 C3.84886835 3.20739029 5.10676341 6.08719875 6 11 C5.01 12.485 5.01 12.485 4 14 C3.74476563 12.95199219 3.74476563 12.95199219 3.484375 11.8828125 C3.12085938 10.51769531 3.12085938 10.51769531 2.75 9.125 C2.51796875 8.22007812 2.2859375 7.31515625 2.046875 6.3828125 C1.20085821 3.85042396 1.20085821 3.85042396 -1.109375 2.6796875 C-1.73328125 2.45539063 -2.3571875 2.23109375 -3 2 C-2.01 2 -1.02 2 0 2 C0 1.34 0 0.68 0 0 Z " fill="#836D63" transform="translate(290,133)"/>
<path d="M0 0 C0.33 0 0.66 0 1 0 C1.19456705 1.95764383 1.38044247 3.91615321 1.5625 5.875 C1.66691406 6.96554687 1.77132812 8.05609375 1.87890625 9.1796875 C2 12 2 12 1 14 C-0.32 14 -1.64 14 -3 14 C-3 12.68 -3 11.36 -3 10 C-2.01 10 -1.02 10 0 10 C0 6.7 0 3.4 0 0 Z " fill="#2E312A" transform="translate(172,320)"/>
<path d="M0 0 C1.65 0 3.3 0 5 0 C5.33 1.32 5.66 2.64 6 4 C4.35 4.33 2.7 4.66 1 5 C0.67 3.35 0.34 1.7 0 0 Z " fill="#E6B1AC" transform="translate(304,244)"/>
<path d="M0 0 C0.33 0.66 0.66 1.32 1 2 C1.66 2.33 2.32 2.66 3 3 C1.02 3.99 1.02 3.99 -1 5 C-0.67 7.31 -0.34 9.62 0 12 C-1.5 10.875 -1.5 10.875 -3 9 C-3.375 6 -3.375 6 -3 3 C-1.5 1.125 -1.5 1.125 0 0 Z " fill="#262A23" transform="translate(213,194)"/>
<path d="M0 0 C0.99 1.485 0.99 1.485 2 3 C2.66 3 3.32 3 4 3 C4.33 3.99 4.66 4.98 5 6 C3.35 7.65 1.7 9.3 0 11 C0 7.37 0 3.74 0 0 Z " fill="#806258" transform="translate(190,176)"/>
<path d="M0 0 C0.66 0.33 1.32 0.66 2 1 C1.67 1.99 1.34 2.98 1 4 C2.175625 4.2165625 2.175625 4.2165625 3.375 4.4375 C6 5 6 5 8 6 C8 6.66 8 7.32 8 8 C6.35153231 7.55123384 4.70626545 7.09069512 3.0625 6.625 C2.14597656 6.36976563 1.22945313 6.11453125 0.28515625 5.8515625 C-2 5 -2 5 -3 3 C-2.34 3 -1.68 3 -1 3 C-0.67 2.01 -0.34 1.02 0 0 Z " fill="#22150B" transform="translate(266,157)"/>
<path d="M0 0 C0.33 0.66 0.66 1.32 1 2 C0.34 2 -0.32 2 -1 2 C-0.67 3.32 -0.34 4.64 0 6 C-2.64 6.33 -5.28 6.66 -8 7 C-6.86500606 3.70851757 -6.00716624 3.0040131 -2.875 1.25 C-1.92625 0.8375 -0.9775 0.425 0 0 Z " fill="#2A2C26" transform="translate(146,327)"/>
<path d="M0 0 C0.99 0 1.98 0 3 0 C3 2.31 3 4.62 3 7 C2.01 7.33 1.02 7.66 0 8 C-0.38063221 5.6739143 -0.71269945 3.33944736 -1 1 C-0.67 0.67 -0.34 0.34 0 0 Z " fill="#775843" transform="translate(191,172)"/>
<path d="M0 0 C2.97 0.495 2.97 0.495 6 1 C6.33 2.32 6.66 3.64 7 5 C4.36 4.34 1.72 3.68 -1 3 C-0.67 2.01 -0.34 1.02 0 0 Z " fill="#7B5940" transform="translate(204,132)"/>
<path d="M0 0 C1.65 0 3.3 0 5 0 C5 1.32 5 2.64 5 4 C2.69 4 0.38 4 -2 4 C-1.34 2.68 -0.68 1.36 0 0 Z " fill="#20231C" transform="translate(186,330)"/>
<path d="M0 0 C2.4375 0.25 2.4375 0.25 5 1 C5.66 1.99 6.32 2.98 7 4 C5.68 4.99 4.36 5.98 3 7 C2.67 6.34 2.34 5.68 2 5 C2.66 5 3.32 5 4 5 C4 4.34 4 3.68 4 3 C2.68 3.33 1.36 3.66 0 4 C-0.33 3.01 -0.66 2.02 -1 1 C-0.67 0.67 -0.34 0.34 0 0 Z " fill="#815F52" transform="translate(280,133)"/>
<path d="M0 0 C2.475 0.495 2.475 0.495 5 1 C4.67 2.32 4.34 3.64 4 5 C2.68 5 1.36 5 0 5 C0 3.35 0 1.7 0 0 Z " fill="#EAA8A9" transform="translate(319,241)"/>
<path d="M0 0 C0.66 0.33 1.32 0.66 2 1 C2.25 3.75 2.25 3.75 2 7 C0 9.375 0 9.375 -2 11 C-1.79375 10.05125 -1.5875 9.1025 -1.375 8.125 C-1.25125 7.09375 -1.1275 6.0625 -1 5 C-1.66 4.34 -2.32 3.68 -3 3 C-2.01 2.01 -1.02 1.02 0 0 Z " fill="#292B25" transform="translate(222,196)"/>
<path d="M0 0 C0.33 0 0.66 0 1 0 C1 2.97 1 5.94 1 9 C-0.32 8.01 -1.64 7.02 -3 6 C-2.67 4.68 -2.34 3.36 -2 2 C-1.34 2 -0.68 2 0 2 C0 1.34 0 0.68 0 0 Z " fill="#F5EAE7" transform="translate(298,174)"/>
<path d="M0 0 C2.125 0.375 2.125 0.375 4 1 C3.34 2.65 2.68 4.3 2 6 C1.01 5.67 0.02 5.34 -1 5 C-1.33 4.01 -1.66 3.02 -2 2 C-1.34 1.34 -0.68 0.68 0 0 Z " fill="#805A47" transform="translate(273,147)"/>
<path d="M0 0 C0.66 0.33 1.32 0.66 2 1 C1.67 2.98 1.34 4.96 1 7 C1.66 7 2.32 7 3 7 C2.34 8.98 1.68 10.96 1 13 C0.34 12.34 -0.32 11.68 -1 11 C-0.9765625 8.3984375 -0.9765625 8.3984375 -0.625 5.375 C-0.51414063 4.37210938 -0.40328125 3.36921875 -0.2890625 2.3359375 C-0.19367188 1.56507813 -0.09828125 0.79421875 0 0 Z " fill="#1D190D" transform="translate(188,181)"/>
<path d="M0 0 C2.4294516 3.6441774 2.16179575 5.71241272 2 10 C0.5 8.875 0.5 8.875 -1 7 C-1.25 3.875 -1.25 3.875 -1 1 C-0.67 0.67 -0.34 0.34 0 0 Z " fill="#765D55" transform="translate(301,179)"/>
<path d="M0 0 C0.66 0 1.32 0 2 0 C0.7508258 3.45925163 -0.67527795 6.14693203 -3 9 C-3.66 8.67 -4.32 8.34 -5 8 C-4.34 6.68 -3.68 5.36 -3 4 C-2.34 4 -1.68 4 -1 4 C-0.67 2.68 -0.34 1.36 0 0 Z " fill="#EFEDE2" transform="translate(198,131)"/>
<path d="M0 0 C0.33 0 0.66 0 1 0 C1.36630156 3.93774177 1.30233203 5.56539771 -1 8.875 C-1.66 9.57625 -2.32 10.2775 -3 11 C-2.69217504 9.35328588 -2.37860766 7.70764424 -2.0625 6.0625 C-1.88847656 5.14597656 -1.71445313 4.22945313 -1.53515625 3.28515625 C-1 1 -1 1 0 0 Z " fill="#E5A9A9" transform="translate(234,258)"/>
<path d="M0 0 C0.66 0.66 1.32 1.32 2 2 C2.66 1.34 3.32 0.68 4 0 C4.33 0.66 4.66 1.32 5 2 C4.0625 4.125 4.0625 4.125 3 6 C2.01 6 1.02 6 0 6 C-1.24546405 3.50907189 -0.7767578 2.58919267 0 0 Z " fill="#825137" transform="translate(294,190)"/>
<path d="M0 0 C0.99 0.33 1.98 0.66 3 1 C1.515 2.485 1.515 2.485 0 4 C0.99 4.33 1.98 4.66 3 5 C1.35 5.66 -0.3 6.32 -2 7 C-2.66 6.34 -3.32 5.68 -4 5 C-2.68 3.35 -1.36 1.7 0 0 Z " fill="#846654" transform="translate(203,131)"/>
<path d="M0 0 C0.33 0 0.66 0 1 0 C1 2.31 1 4.62 1 7 C1.99 7 2.98 7 4 7 C4 7.99 4 8.98 4 10 C2.35 10 0.7 10 -1 10 C-0.67 6.7 -0.34 3.4 0 0 Z " fill="#484943" transform="translate(150,314)"/>
<path d="M0 0 C0.99 0.33 1.98 0.66 3 1 C4.1875 4.0625 4.1875 4.0625 5 7 C4.01 7.495 4.01 7.495 3 8 C0.37613513 4.93882432 0 4.26826873 0 0 Z " fill="#1C1D17" transform="translate(146,304)"/>
<path d="M0 0 C0.66 0.99 1.32 1.98 2 3 C0.9024777 5.99324263 0.32317108 6.84610901 -2.625 8.25 C-3.40875 8.4975 -4.1925 8.745 -5 9 C-3.99088542 7.2421875 -2.98177083 5.484375 -1.97265625 3.7265625 C-1.28280949 2.50201525 -0.62855462 1.25710923 0 0 Z " fill="#EFE7DF" transform="translate(261,280)"/>
<path d="M0 0 C2.475 0.99 2.475 0.99 5 2 C5 2.66 5 3.32 5 4 C5.66 4.33 6.32 4.66 7 5 C6.67 6.65 6.34 8.3 6 10 C4 7 4 7 3 4.875 C2.14139842 2.82955462 2.14139842 2.82955462 0 2 C0 1.34 0 0.68 0 0 Z " fill="#48332E" transform="translate(254,252)"/>
<path d="M0 0 C1.32 0 2.64 0 4 0 C4 1.65 4 3.3 4 5 C2.68 5 1.36 5 0 5 C0 3.35 0 1.7 0 0 Z " fill="#E8ADAD" transform="translate(330,246)"/>
<path d="M0 0 C2.875 -0.125 2.875 -0.125 6 0 C6.66 0.66 7.32 1.32 8 2 C7.96712417 4.72869407 7.43602229 7.2966618 7 10 C6.67 10 6.34 10 6 10 C5.67 7.69 5.34 5.38 5 3 C2.525 2.01 2.525 2.01 0 1 C0 0.67 0 0.34 0 0 Z " fill="#383C35" transform="translate(251,208)"/>
<path d="M0 0 C0.33 0.66 0.66 1.32 1 2 C3.02463255 2.65213292 3.02463255 2.65213292 5 3 C-1.625 6.125 -1.625 6.125 -5 5 C-3.35 3.35 -1.7 1.7 0 0 Z " fill="#DFE3DF" transform="translate(235,204)"/>
<path d="M0 0 C0.33 0 0.66 0 1 0 C1 2.64 1 5.28 1 8 C-0.32 8.33 -1.64 8.66 -3 9 C-2.01 6.03 -1.02 3.06 0 0 Z " fill="#CACFCA" transform="translate(187,184)"/>
<path d="M0 0 C3.40424844 1.13474948 4.21653709 1.96811304 6 5 C5.67 5.99 5.34 6.98 5 8 C2.21611025 6.29374499 1.14615794 5.52373261 0.25 2.3125 C0.1675 1.549375 0.085 0.78625 0 0 Z " fill="#785D47" transform="translate(293,181)"/>
<path d="M0 0 C0.66 0 1.32 0 2 0 C2 0.66 2 1.32 2 2 C2.99 2.33 3.98 2.66 5 3 C3.02 3.99 1.04 4.98 -1 6 C-1.33 5.01 -1.66 4.02 -2 3 C-1.34 2.01 -0.68 1.02 0 0 Z " fill="#896151" transform="translate(206,182)"/>
<path d="M0 0 C0.99 0.33 1.98 0.66 3 1 C3 2.98 3 4.96 3 7 C2.01 6.67 1.02 6.34 0 6 C0 4.02 0 2.04 0 0 Z " fill="#171913" transform="translate(301,308)"/>
<path d="M0 0 C0.33 0 0.66 0 1 0 C1.22162329 1.62324086 1.42689803 3.248721 1.625 4.875 C1.74101562 5.77992188 1.85703125 6.68484375 1.9765625 7.6171875 C1.98429687 8.40351563 1.99203125 9.18984375 2 10 C1.34 10.66 0.68 11.32 0 12 C-1.29449495 8.11651516 -1.13203312 5.09302664 -1 1 C-0.67 0.67 -0.34 0.34 0 0 Z " fill="#866450" transform="translate(294,195)"/>
<path d="M0 0 C0.66 0 1.32 0 2 0 C2.66 0.66 3.32 1.32 4 2 C3.625 4.625 3.625 4.625 3 7 C2.01 6.67 1.02 6.34 0 6 C0 4.02 0 2.04 0 0 Z " fill="#6E5649" transform="translate(297,152)"/>
<path d="M0 0 C3.71428571 4.95238095 3.71428571 4.95238095 4 8 C3.34 9.32 2.68 10.64 2 12 C1.34 8.04 0.68 4.08 0 0 Z " fill="#E0A4A2" transform="translate(256,255)"/>
<path d="M0 0 C1.65 1.32 3.3 2.64 5 4 C4.01 5.485 4.01 5.485 3 7 C2.34 7 1.68 7 1 7 C0.67 4.69 0.34 2.38 0 0 Z " fill="#3A3A34" transform="translate(217,238)"/>
<path d="M0 0 C0.928125 1.175625 0.928125 1.175625 1.875 2.375 C3.89858661 4.96837647 3.89858661 4.96837647 6 7 C5.01 7.33 4.02 7.66 3 8 C0.9375 5.6875 0.9375 5.6875 -1 3 C-0.67 2.01 -0.34 1.02 0 0 Z " fill="#3C3F39" transform="translate(234,218)"/>
<path d="M0 0 C2.83374881 3.20336822 3.5205537 5.78087253 4 10 C1 8 1 8 0.48828125 6.0546875 C0.32552083 4.03645833 0.16276042 2.01822917 0 0 Z " fill="#7F5F4B" transform="translate(303,195)"/>
<path d="M0 0 C1.32 0.33 2.64 0.66 4 1 C4 2.32 4 3.64 4 5 C2.68 5 1.36 5 0 5 C0 3.35 0 1.7 0 0 Z " fill="#2B2C26" transform="translate(205,329)"/>
<path d="M0 0 C3.63 0 7.26 0 11 0 C11 0.33 11 0.66 11 1 C7.7 1.66 4.4 2.32 1 3 C0.67 2.01 0.34 1.02 0 0 Z " fill="#F0EAE5" transform="translate(238,292)"/>
<path d="M0 0 C0.66 0.66 1.32 1.32 2 2 C1.34 3.98 0.68 5.96 0 8 C-0.66 8 -1.32 8 -2 8 C-1.125 1.125 -1.125 1.125 0 0 Z " fill="#3C3B36" transform="translate(170,264)"/>
<path d="M0 0 C0 3 0 3 -1.1875 4.75 C-3 6 -3 6 -5.6875 5.6875 C-6.450625 5.460625 -7.21375 5.23375 -8 5 C-7.4225 4.731875 -6.845 4.46375 -6.25 4.1875 C-3.9674132 2.98280141 -2.0262058 1.59201885 0 0 Z " fill="#3D3F39" transform="translate(238,237)"/>
<path d="M0 0 C1.41623216 -0.05447047 2.83308191 -0.09300508 4.25 -0.125 C5.03890625 -0.14820313 5.8278125 -0.17140625 6.640625 -0.1953125 C9.20731941 0.0171622 10.7916067 0.71345895 13 2 C11.02 2.33 9.04 2.66 7 3 C7 2.34 7 1.68 7 1 C4.69 1 2.38 1 0 1 C0 0.67 0 0.34 0 0 Z " fill="#1E211A" transform="translate(242,206)"/>
<path d="M0 0 C4.455 1.98 4.455 1.98 9 4 C8.01 4.66 7.02 5.32 6 6 C3.96166576 4.7260411 1.96147874 3.38938077 0 2 C0 1.34 0 0.68 0 0 Z " fill="#F7EADD" transform="translate(277,183)"/>
<path d="M0 0 C0.99 0.495 0.99 0.495 2 1 C2 1.99 2 2.98 2 4 C2.66 4.33 3.32 4.66 4 5 C2.68 5.99 1.36 6.98 0 8 C0 5.36 0 2.72 0 0 Z " fill="#EBDED1" transform="translate(194,173)"/>
<path d="M0 0 C-0.66 0 -1.32 0 -2 0 C-2 0.66 -2 1.32 -2 2 C-3.98 2.33 -5.96 2.66 -8 3 C-8 2.01 -8 1.02 -8 0 C-4.94736336 -0.98120464 -3.05263664 -0.98120464 0 0 Z " fill="#342E27" transform="translate(238,158)"/>
<path d="M0 0 C2.46800047 1.15173355 4.04783565 2.04783565 6 4 C5.01 4.99 4.02 5.98 3 7 C0 2.25 0 2.25 0 0 Z " fill="#E4E6DF" transform="translate(217,139)"/>
</svg>
